<svg id="Layer_1" data-name="Layer 1" xmlns="http://www.w3.org/2000/svg" xmlns:xlink="http://www.w3.org/1999/xlink" viewBox="0 0 64 64"><defs><linearGradient id="linear-gradient" x1="4.16" y1="22.71" x2="59.84" y2="22.71" gradientUnits="userSpaceOnUse"><stop offset="0" stop-color="#2b3990"/><stop offset="1" stop-color="#00aeef"/></linearGradient><linearGradient id="linear-gradient-2" x1="9.62" y1="31.17" x2="54.38" y2="31.17" xlink:href="#linear-gradient"/><linearGradient id="linear-gradient-3" x1="15.02" y1="39.55" x2="48.98" y2="39.55" xlink:href="#linear-gradient"/><linearGradient id="linear-gradient-4" x1="20.39" y1="47.88" x2="43.61" y2="47.88" xlink:href="#linear-gradient"/></defs><title>wlan</title><path d="M59.7,26.69a.68.68,0,0,0-.1-.92A42.43,42.43,0,0,0,32,15.41,42.43,42.43,0,0,0,4.4,25.77a.68.68,0,0,0-.1.92l2.24,3a.66.66,0,0,0,1,.11,37.38,37.38,0,0,1,49,0,.66.66,0,0,0,1-.11Z" style="fill:url(#linear-gradient)"/><path d="M54.25,34.1a.67.67,0,0,0-.11-.92A34.22,34.22,0,0,0,32,24.91,34.22,34.22,0,0,0,9.86,33.18a.67.67,0,0,0-.11.92l2.24,3a.68.68,0,0,0,1,.11,29.24,29.24,0,0,1,38.06,0,.68.68,0,0,0,1-.11Z" style="fill:url(#linear-gradient-2)"/><path d="M48.84,41.45a.68.68,0,0,0-.1-.92,25.76,25.76,0,0,0-33.48,0,.68.68,0,0,0-.1.92l2.24,3a.69.69,0,0,0,1,.12,21.21,21.21,0,0,1,27.24,0,.69.69,0,0,0,1-.12Z" style="fill:url(#linear-gradient-3)"/><path d="M32,43.7a18,18,0,0,0-11.37,4.11.7.7,0,0,0-.11.93l2.24,3a.69.69,0,0,0,1,.14,13.23,13.23,0,0,1,16.56,0,.69.69,0,0,0,1-.14l2.24-3a.7.7,0,0,0-.11-.93A18,18,0,0,0,32,43.7Z" style="fill:url(#linear-gradient-4)"/><path d="M45.32,35.07H34.8a1.66,1.66,0,0,1-1.44-2.49l5.26-9.11,5.26-9.11a1.66,1.66,0,0,1,2.87,0L52,23.47l5.26,9.11a1.66,1.66,0,0,1-1.44,2.49Z" style="fill:#fff"/><path d="M55.83,36.66h-21A3.25,3.25,0,0,1,32,31.79L42.5,13.57a3.22,3.22,0,0,1,2.82-1.63h0a3.22,3.22,0,0,1,2.81,1.63L58.65,31.79a3.25,3.25,0,0,1-2.82,4.87ZM45.32,15.13s0,0-.06,0L34.74,33.38a.06.06,0,0,0,0,.06.06.06,0,0,0,.06,0h21a.06.06,0,0,0,.06,0s0,0,0-.06L45.37,15.16A0,0,0,0,0,45.32,15.13Z" style="fill:#ed2024"/><path d="M44.39,26.19,44.12,22c-.06-.82-.08-1.4-.08-1.75a1.55,1.55,0,0,1,.38-1.13,1.29,1.29,0,0,1,1-.41,1,1,0,0,1,1,.52,3.7,3.7,0,0,1,.25,1.5,11.41,11.41,0,0,1-.06,1.16l-.38,4.3A3.39,3.39,0,0,1,46,27.38a.68.68,0,0,1-.66.41.65.65,0,0,1-.65-.4A3.82,3.82,0,0,1,44.39,26.19Zm1,5.73a1.44,1.44,0,0,1-.93-.34,1.22,1.22,0,0,1-.39-1,1.24,1.24,0,0,1,.38-.92,1.25,1.25,0,0,1,.92-.37,1.3,1.3,0,0,1,.94.37,1.25,1.25,0,0,1,.39.92,1.21,1.21,0,0,1-.39,1A1.37,1.37,0,0,1,45.36,31.92Z"/></svg>