<svg id="Layer_1" data-name="Layer 1" xmlns="http://www.w3.org/2000/svg" xmlns:xlink="http://www.w3.org/1999/xlink" viewBox="0 0 64 64"><defs><linearGradient id="linear-gradient" x1="4.16" y1="21.75" x2="59.84" y2="21.75" gradientUnits="userSpaceOnUse"><stop offset="0" stop-color="#0062a8"/><stop offset="1" stop-color="#8bd7f8"/></linearGradient><linearGradient id="linear-gradient-2" x1="9.62" y1="30.2" x2="54.38" y2="30.2" xlink:href="#linear-gradient"/><linearGradient id="linear-gradient-3" x1="15.02" y1="38.59" x2="48.98" y2="38.59" xlink:href="#linear-gradient"/><linearGradient id="linear-gradient-4" x1="20.39" y1="46.92" x2="43.61" y2="46.92" xlink:href="#linear-gradient"/><radialGradient id="radial-gradient" cx="47.62" cy="24.96" r="12.06" gradientUnits="userSpaceOnUse"><stop offset="0" stop-color="#ee353d"/><stop offset="1" stop-color="#be1b21"/></radialGradient></defs><title>wlan</title><path d="M59.7,25.73a.68.68,0,0,0-.1-.92A42.43,42.43,0,0,0,32,14.45,42.43,42.43,0,0,0,4.4,24.81a.68.68,0,0,0-.1.92l2.24,3.05a.66.66,0,0,0,1,.11,37.38,37.38,0,0,1,49,0,.66.66,0,0,0,1-.11Z" style="fill:url(#linear-gradient)"/><path d="M54.25,33.14a.67.67,0,0,0-.11-.92A34.22,34.22,0,0,0,32,24,34.22,34.22,0,0,0,9.86,32.22a.67.67,0,0,0-.11.92l2.24,3a.67.67,0,0,0,1,.12A29.24,29.24,0,0,1,51,36.3a.67.67,0,0,0,1-.12Z" style="fill:url(#linear-gradient-2)"/><path d="M48.84,40.49a.69.69,0,0,0-.1-.93,25.76,25.76,0,0,0-33.48,0,.69.69,0,0,0-.1.93l2.24,3a.68.68,0,0,0,1,.11,21.25,21.25,0,0,1,27.24,0,.68.68,0,0,0,1-.11Z" style="fill:url(#linear-gradient-3)"/><path d="M32,42.74a18,18,0,0,0-11.37,4.11.68.68,0,0,0-.11.92l2.24,3a.68.68,0,0,0,1,.15,13.23,13.23,0,0,1,16.56,0,.68.68,0,0,0,1-.15l2.24-3a.68.68,0,0,0-.11-.92A18,18,0,0,0,32,42.74Z" style="fill:url(#linear-gradient-4)"/><path d="M59.43,16.58,56,13.15a.83.83,0,0,0-1.18,0l-7.2,7.2-7.2-7.2a.84.84,0,0,0-1.19,0l-3.42,3.43a.84.84,0,0,0,0,1.19L43,25l-7.19,7.2a.84.84,0,0,0,0,1.19l3.42,3.43a.84.84,0,0,0,1.19,0l7.2-7.2,7.2,7.2a.83.83,0,0,0,1.18,0l3.43-3.43a.84.84,0,0,0,0-1.19L52.23,25l7.2-7.19A.84.84,0,0,0,59.43,16.58Z" style="stroke:#fff;stroke-miterlimit:10;stroke-width:1.5px;fill:url(#radial-gradient)"/></svg>