<?xml version="1.0" encoding="utf-8"?>
<!-- Generator: Adobe Illustrator 22.1.0, SVG Export Plug-In . SVG Version: 6.00 Build 0)  -->
<svg version="1.1" id="Layer_1" xmlns="http://www.w3.org/2000/svg" xmlns:xlink="http://www.w3.org/1999/xlink" x="0px" y="0px"
	 viewBox="0 0 595.3 841.9" style="enable-background:new 0 0 595.3 841.9;" xml:space="preserve">
<rect x="10.6" y="364" style="fill:#FFFFFF;" width="86.9" height="108.3"/>
<g id="wyQsgs.tif">
	<g>
		<g>
			<path style="fill:#FFFFFF;" d="M501.8,568.7c0,0.6-0.3,1.2-0.4,1.8"/>
			<path d="M501.4,570.5c-9.5,0-19,0-28.5,0c-2.4,0-4.8,0-7.1,0c-1.1,0-2.2,0-3.4,0c-0.7,0-0.8-0.3-1.1-0.9
				c-0.3-0.5-0.6-1.1-0.9-1.6c-1.1-1.9-2.5-3.6-3.9-5.2c-1.4-1.7-2.7-3.5-3.9-5.3c-2.3-3.5-5.1-6.5-7.8-9.7
				c-1.3-1.6-2.6-3.2-3.7-4.9c-1-1.6-1.7-3.6-3.2-4.7c-0.8-0.6-1.7-1.3-2.5-1.9c-0.8-0.6-1.5-1.4-2.5-1.8c-1.9-0.7-3.7,1.7-5,2.7
				c-3.6,2.9-7.4,5.7-11.1,8.4c-2.1,1.5-4.2,2.9-6.2,4.6c-1.9,1.5-0.7,3.4,0,5.2c1.9,5,3.8,10.1,5.7,15.1c-0.5,0-0.9,0-1.4,0
				c-0.2,0-0.8,0.1-1,0c-0.2-0.2-0.5-1.2-0.6-1.5c-0.1-0.4-0.3-0.7-0.4-1.1c-0.7-1.8-1.4-3.6-2.1-5.4c-0.7-1.7-1.3-3.5-2-5.2
				c-0.3-0.9-0.6-1.8-1-2.6c-0.3-0.7-0.9-0.9-1.4-1.3c-0.3,0.6-0.8,1-1.1,1.6c-0.3,0.6-0.3,1.1-0.2,1.7c0.2,1.5,0.6,3,1,4.5
				c0.8,3.1,1.7,6.1,2.6,9.2c-1.1,0-2.1,0-3.2,0c0.1-1.7-0.5-3.3-1-4.9c-0.5-1.7-1-3.5-1.5-5.2c-0.3-1.1-0.4-2.8-1.8-3
				c-0.7-0.1-1.1,0.3-1.7,0.6c-0.7,0.4-1.5,0.9-2.2,1.3c-2.8,1.7-5.5,3.5-7.9,5.8c-1.1,1-2.2,2.5-3.6,3c-1.3,0.5-2.7,0.2-3.9-0.3
				c1.2-0.7,2.4-1.2,3.5-2c1.1-0.8,1.9-1.9,2.9-2.8c2.1-1.9,4.6-3.4,7-4.9c1.3-0.8,2.6-1.6,3.9-2.4c1-0.6,2-1,2.1-2.3
				c0.1-1.3-0.2-2.6-0.3-3.9c-0.1-1.6-0.2-3.1-0.3-4.7c-0.4-6.1-0.3-12.2,0.8-18.2c1-5.4,2.5-10.8,4.8-15.8c0.5-1.2,1.1-2.4,1.8-3.5
				c0.6-1.1,1.3-2.3,1.5-3.6c0.5-2.7-1.4-4.6-2.9-6.6c-0.6-0.8-1.3-2.3-2.3-2.7c-1.2-0.4-1.8,1-2.3,1.8c-1.5,2.7-3,5.4-4.5,8.1
				c-2.8,5-5.6,9.9-7.9,15.1c-1.1,2.5-2.1,5.1-3,7.7c-0.9,2.7-1.5,5.5-2.2,8.3c-0.8,3.3-1.8,6.5-2.7,9.7c-0.8,3.2-1.3,6.5-1.7,9.8
				c-0.4,3.3-0.6,6.7-0.9,10c-0.1,0.8-0.2,1.6,0,2.3c0.2,0.6,0.6,1.1,0.8,1.8c0.2,0.5,0.1,0.2-0.1,0.7c-0.1,0.2-0.2,0.4-0.3,0.6
				c-0.1,0.3-0.2,0.4-0.5,0.3c-0.7,0.2-1.7,0-2.5,0c0.8-7.6,1.1-15.5,2.8-23c0.8-3.7,2.1-7.3,2.8-11c0.7-3.6,1.7-7.1,2.9-10.6
				c2.5-7,5.8-13.7,9.6-20.1c3.9-6.7,7.7-13.5,12.1-20c2.5-3.6,5-7.1,7.6-10.6c1.2-1.7,2.5-3.4,3.8-5.1c0.7-0.8,1.3-1.7,1.9-2.5
				c0.7-0.9,0.5-1.4,0.5-2.5c-0.8,0.1-1.7,0.3-2.5,0.2c-0.9-0.1-1.5-0.9-2.5-0.7c-0.9,0.1-1.7,0.9-2.4,1.4c-0.9,0.7-1.9,1.3-2.9,1.9
				c-3.8,2.3-7.7,4.6-11.6,7c-7.6,4.6-15.2,9.1-22.9,13.6c-15.2,9-30.3,18.2-45.1,27.9c-2.1,1.4-4.1,2.7-6.2,4.1
				c-1,0.6-2,1.3-2.9,1.9c-0.8,0.5-1.8,1-2.3,1.9c-0.9,1.7,0.3,3.9,0.8,5.5c0.7,2.3,1.5,4.6,2.3,6.9c0.6-0.4,1.3-0.6,1.9-1
				c0.7-0.4,1.3-1,1.8-1.6c1.2-1.2,2.5-2.4,3.7-3.7c2.5-2.5,5-5,7.5-7.4c2.5-2.4,5.1-4.8,7.8-7c1.3-1.1,2.7-2.1,4-3.2
				c1.1-0.8,2.2-1.9,3.7-2.1c2.7-0.4,3.9,2.8,4.4,4.9c0.9,3.5,1.7,7,2.5,10.5c1.7,6.9,3.7,13.6,5.1,20.6c1.6,7.9,2.4,15.8,3.4,23.8
				c-3.9,0-7.7,0-11.6,0c-2,0-3.9,0-5.9,0c-0.9,0-1.8,0-2.8,0c-0.9,0-2.2,0.2-2.8-0.3c-1.5-1.2-2.9-2.8-4.2-4.1
				c-1.4-1.4-2.8-2.7-4.3-4.1c-1.4-1.3-2.7-2.6-4.1-3.9c-0.8-0.7-2.6-2.4-2.8-0.3c-0.1,0.9,0.2,2,0.4,2.9c0.2,1.1,0.4,2.2,0.5,3.2
				c0.4,2.2,0.8,4.4,1.2,6.6c-0.4,0-0.9,0-1.3,0c-0.6,0-0.7,0.1-0.8-0.6c-0.3-1-0.5-2-0.8-3c-0.5-1.9-0.9-3.8-1.4-5.7
				c-0.2-1-0.5-1.9-0.7-2.9c-0.1-0.5-0.3-2.7-1.1-2.4c-0.2,0.1-0.5,0.9-0.6,1.2c-0.2,0.4-0.4,0.8-0.6,1.2c-0.5,0.9-0.9,1.8-1.3,2.7
				c-0.8,1.6-1.8,3.4-2.1,5.2c-0.1,0.8-0.1,1.7-0.1,2.5c0,0.4,0,0.8,0,1.2c0,0.1,0,0.4,0,0.5c-0.1,0.1-0.8,0-1,0c-4,0-8,0-12,0
				c-2,0-4.1,0-6.1,0c-0.5,0-0.9,0-1.4,0c-0.3,0-1.4,0.2-1.6,0c-0.2-0.1-0.2-1.2-0.2-1.4c-0.1-0.5-0.2-1-0.3-1.6
				c-0.6-4-1.3-7.9-1.9-11.9c-0.3-1.9-0.7-3.8-0.9-5.8c-0.1-0.9,0.2-1.5,0.4-2.4c0.2-0.8,0.3-1.7,0.3-2.6c0-0.9-0.2-1.7-0.4-2.5
				c-0.3-0.9-0.7-1.7-0.9-2.6c-0.2-0.8-0.1-1.6-0.2-2.4c-0.1-1-0.3-2.1-0.5-3.1c-0.5-3.7-0.3-8,0.8-11.6c0.3-0.9,0.7-1.2,1.6-1.2
				c0.7-0.1,1.4,0,2.2,0.1c1,0,1.9-0.5,2.8-0.9c-0.4-0.5-0.7-1.1-1.2-1.6c-0.6-0.6-1.5-0.7-2.3-0.9c-1.7-0.5-3.5-1.1-5.2-1.5
				c-1.7-0.4-3.5-0.8-5.3-0.6c-1.7,0.2-3.4,0.8-5,1.4c-6.9,2.3-13.6,5.1-20.7,6.8c-7.1,1.7-14.2,3.8-21.3,5.2
				c-7.1,1.4-14.5,1.9-21.8,2.2c-3.6,0.1-7.1,0.2-10.7-0.2c-3.2-0.4-6.8-0.9-9.7-2.4c-1.9-1-3.1-2.5-2.9-4.7
				c0.1-1.4,0.7-2.8,1.1-4.1c0.6-1.7,1.3-3.4,2-5.2c1.3-3.3,2.5-6.7,3.7-10.1c1.3-3.6,2.8-7.1,4.1-10.7c1.2-3.3,2.2-6.5,3.8-9.7
				c1.7-3.2,3.5-6.4,5.2-9.6c3.4-6.3,6.7-12.9,9.1-19.7c0.6-1.7,1-3.4,1.4-5.1c0.2-1,1.1-3,0.5-3.9c-0.7-1.1-3.1-0.5-4.1-0.4
				c-1.8,0.1-3.6,0.2-5.5,0.2c-0.9,0-1.8,0.1-2.7,0.1c-0.9,0-1.7-0.2-2.6-0.2c-1.8-0.1-3.7,0.1-5.5,0.2c-3.8,0.2-7.5,0.3-11.3,0.5
				c-7.5,0.4-15,0.8-22.4,1.3c-7.4,0.5-14.8,1-22.2,2.1c-3.7,0.6-7.4,1.2-11.1,1.6c-3.6,0.4-7.3,0.4-10.9,0.5
				c-7.1,0.2-14.4,0.7-21.5-0.7c-5.8-1.1-12.3-3.7-15.4-9c-0.8-1.3-1.3-2.6-1.1-4.1c0.2-1.8,0.4-3.6,0.7-5.4
				c0.2-1.8,0.4-3.6,0.7-5.4c0.2-1.2,0.3-2.7,0.9-3.8c1.1-2,4.1-1.6,6-1.8c3.6-0.3,7.2-0.7,10.8-0.9c7.3-0.5,14.7-1,22-1.2
				c1.4,0,2.8,0.1,3.9,0.9c1.1,0.8,2,2.1,2.7,3.4c0.7,1.2,1.1,2.6,1.1,4c0.1,1.6-0.3,3-0.6,4.5c-0.3,1.7-0.1,3.6-0.9,5.1
				c-0.5,1.2-1.4,2.2-2.1,3.3c1.8,0.2,3.5,0.6,5.3,0.8c2,0.2,4,0.1,6,0.1c4.3,0,8.5,0,12.8-0.1c8.5-0.1,17-0.4,25.5-0.6
				c8.5-0.2,16.9-0.3,25.4-0.2c4.2,0,8.3,0.1,12.5,0.6c4,0.5,8.2,0.1,12.2-0.1c1-0.1,2.1-0.1,3.1-0.2c0.8-0.1,1.7,0,2.4-0.4
				c1.2-0.5,1.9-1.6,2.5-2.6c0.7-1.1,1.7-2.2,2.1-3.4c0.3-1.2,0.8-3.7-0.5-4.5c-1.4-0.9-3.5-0.3-5-0.1c-2,0.3-4,0.4-6,0.2
				c-2.1-0.2-4.1-0.7-6.1-1.2c-1.5-0.4-2.8-0.8-3.3-2.4c-0.5-1.5-0.2-3.3,0.1-4.8c0.4-1.8,1.1-3.3,2-4.9c1-1.7,1.7-3.6,2.5-5.3
				c0.8-1.8,1.7-3.6,2.5-5.4c0.8-1.7,1.4-3.6,2.9-4.9c1.3-1.2,3-2,4.6-2.8c3.4-1.7,6.9-2.5,10.7-3.2c4.1-0.7,8.2-1.7,12.3-2.7
				c1.5-0.3,2.9-0.6,4-1.8c1-1,1.4-2.4,1.3-3.8c0-2.1-0.3-4.2-0.5-6.3c-0.1-1-0.1-2-0.2-3.1c-0.1-0.5-0.2-1-0.7-1.3
				c-0.5-0.3-1.1-0.2-1.7-0.3c-0.7-0.1-1.3-0.3-1.8-0.7c-1-0.9-1.3-2.3-1.1-3.5c0.2-0.7,0.5-1.4,0.6-2.2c0.1-0.7,0.3-1.8-0.1-2.4
				c-0.4-0.6-1.2-0.7-1.9-0.8c-1.1-0.1-2.2-0.2-3.4-0.3c-2.1-0.1-4.2-0.2-6.3-0.2c-1,0-1.9,0-2.9,0c-1,0-2-0.2-2.9,0
				c-4,0.8-8.1,1-12.2,1c-4,0-8,0.2-12.1,0c-1,0-1.9-0.1-2.9-0.1c-0.7,0-1.5,0-2.1-0.3c-0.6-0.3-0.9-0.9-1.5-1.1
				c-0.7-0.2-1.5-0.1-2.2,0c-1.6,0.1-3-0.2-4.3-1.2c-1.2-0.9-2.2-1.7-1.9-3.3c0.3-1.4,0.9-2.3,0.6-3.8c-0.3-1.5-1.1-2.2-2.3-3.1
				c-1.1-0.8-2.3-1.6-3-2.8c-0.8-1.4-0.5-3.1-0.1-4.7c0.9-3.3,1.9-6.7,4.6-9c2.5-2.2,5.8-3.3,8.8-4.5c7.7-3.2,15.1-6.8,22.7-10.1
				c7.5-3.3,15.2-5.9,22.7-9.1c7.6-3.3,15.4-6.3,23-9.5c1.8-0.8,3.5-1.8,5.3-2.7c1.8-0.9,3.7-1.6,5.6-2.3c3.9-1.5,7.6-3.4,11.4-5.1
				c3.8-1.7,7.7-3.1,11.5-4.8c1.9-0.8,3.6-1.8,5.5-2.7c1.6-0.8,3.3-1.3,5-1.9c0.7-0.3,1.5-0.5,2.2-0.9c0.7-0.4,1.4-0.9,2.2-1.1
				c1.6-0.5,3.3,0,4.9,0.1c-2.4,1.1-4.7,2.3-7.1,3.4c-1.6,0.7-3.3,0.7-4.5,2.1c-1,1.2-1.2,2.8-1.1,4.3c0.1,1.8,0.5,2.9,2.4,2.7
				c5.2-0.5,10.4-1.3,15.7-1.9c5.3-0.7,10.7-1.4,16-2.1c1.5-0.2,2.9-0.3,4.4-0.4c0.8-0.1,1.8-0.1,2.3-0.9c0.5-0.8,0.1-2.1,0-3
				c-0.2-1.5-0.4-3-0.6-4.5c0.5,0,1.6-0.2,2,0c0.4,0.2,0.4,2,0.5,2.5c0.1,0.8,0.3,1.7,0.4,2.5c0.1,0.6,0,1.4,0.4,2
				c0.5,0.9,1.8,0.8,2.7,0.8c0.9,0,1.8-0.1,2.6-0.4c1.7-0.7,2.2-2.7,2.5-4.3c0.1-0.7,0.2-1.3,0.3-2c0.1-0.4,0-0.9,0.4-1.1
				c0.3-0.1,1,0,1.3,0c1.7,0,3.4,0,5.1,0c3.5,0,7.1-0.1,10.6-0.1c1.8,0,3.5,0,5.3,0c1.6,0,3.3-0.2,4.9,0.2c1.5,0.4,2.7,1.4,3.9,2.3
				c1.3,1,2.6,2.1,3.9,3.1c2.2,1.7,4.3,3.8,6.7,5.1c0.6,0.3,1.2,0.6,1.8,0.8c0.6,0.2,1.3,0.2,1.8,0.7c0.9,1,1.4,2.4,2.3,3.4
				c1.1,1.2,2.5,2.3,3.8,3.4c1.3,1.1,2.5,2.2,3.8,3.3c5.2,4.5,10.7,8.7,15.9,13.2c1.2,1.1,2.2,2.2,3.2,3.5c1.1,1.3,2.3,2.2,3.6,3.3
				c2.2,1.8,5.3,3.7,6.4,6.5c0.9,2.2,0,4.4-1,6.4c-1.3,2.7-2.8,5.5-4.6,8c-1.8,2.4-2.8,5.2-4.8,7.4c-1.9,2.3-3.1,5.2-4.5,7.8
				c-0.7,1.3-1.6,2.1-2.6,3.2c-1,1.1-2,2.2-2.8,3.4c-1.8,2.6-3.4,5.5-5.3,8.1c-1.9,2.7-3.8,5.3-5.5,8.1c-1.6,2.7-2.4,6.1-4.6,8.4
				c-1.1,1.1-1.8,2.6-2.6,3.9c-0.9,1.4-1.8,2.9-2.6,4.4c-1.7,2.9-3.4,5.8-4.5,9c-0.6,1.6-1.1,3.1-1.7,4.7c-0.3,0.8-0.5,1.5-0.8,2.3
				c-0.3,0.7-0.8,1.3-1.1,2c-0.3,0.7,0.1,1.2,0.2,1.9c0.2,0.8,0.3,1.6,0.2,2.5c0,1.6-0.3,3.2-0.5,4.8c-0.2,1.7,0,3.3,0.1,5
				c0.1,1.8,0.1,3.5,0.2,5.3c0.1,1.7,0.1,3.4,0.2,5.1c0.1,1.7,0.1,3.4,0.6,5c0.4,1.5,1.2,2.8,1.9,4.2c0.7,1.4,1.4,2.8,2.1,4.2
				c0.7,1.3,1.4,2.7,2.5,3.8c1,1,2.4,1.7,3.6,2.4c1.1,0.6,2.2,1.1,3,2c0.9,1,1.2,2.2,2.2,3.1c0.5,0.4,1,0.8,1.4,1.3
				c0.4,0.5,0.7,1.2,1.1,1.7c1,1.3,2.3,2.4,3.5,3.6c4.9,4.9,9.4,10.1,14,15.3c2.3,2.6,4.7,5.3,7.1,7.8c1.1,1.2,2.2,2.5,3.6,3.5
				c1.3,0.9,2.5,1.7,3.6,2.8c4.7,5.1,9.1,10.2,14.2,14.9c5,4.6,9.8,9.4,14.8,14c2.5,2.3,5,4.6,7.5,6.8 M363.5,379.6
				c-5.6-3.2-11.3-6.3-16.9-9.4c-0.6-0.4-1.2-0.7-1.7-1.2c-0.5-0.5-0.8-1.1-1.3-1.6c-0.8-0.9-2.4-1.4-3.5-1.9
				c-1.2-0.6-2.5-1.1-3.9-1.3c-1.5-0.2-3,0-4.5,0.1c-1.4,0.1-2.7,0-4.1,0.1c-0.7,0-1.4,0-2,0.3c-1.2,0.6-1.4,2.3-1.6,3.4
				c-0.4,2-0.9,4-2.8,5.1c-0.9,0.5-2,0.6-3.1,0.7c-1.2,0.1-2.9-0.2-3.9,0.4c-0.9,0.5-0.9,1.6-0.9,2.6c-0.1,1.6-0.2,3.1-0.6,4.6
				c-0.8,3-2,5.9-3.6,8.5c-2.6,4.2-5.7,8.3-10.2,10.4c-4.2,2-9.8,2.6-14.3,1c-2.2-0.8-4.2-2.2-5.8-4c-1.6-1.7-2.6-4.4-5.4-3.6
				c-1.3,0.4-2.6,0-3.9-0.2c-1.6-0.2-3.1,0.3-4.7,0.6c-3.4,0.7-6.8,1.5-10.2,2.2c-3.3,0.7-6.7,1.5-10,2.3c-2.3,0.5-5.1,0.8-6.6,2.9
				c-0.9,1.3-1.5,2.8-2.3,4.2c-0.8,1.4-1.6,2.8-2.4,4.2c-1.6,2.8-3,5.7-4.2,8.7c-0.6,1.5-1.2,3.1-1.7,4.6c-0.3,0.8-0.7,1.8-0.4,2.7
				c0.3,0.8,1.3,1.1,2.1,1.3c1.6,0.4,3.2,0.5,4.8,0.5c3.3-0.1,6.4-0.9,9.7-1.4c3.3-0.5,6.5-1.3,9.7-2.1c6.7-1.6,13.5-2.6,20.2-3.9
				c1.8-0.3,4.2-0.5,5.4-2c0.7-0.9,0.8-2,0.8-3c0-0.7,0.1-1.5-0.7-1.7c-0.4-0.1-0.8,0-1.2,0.1c-0.9,0.2-1.8,0.4-2.7,0.6
				c-1.7,0.3-3.3,0.7-5,1c-1.7,0.3-3.3,0.7-5,1c-1.6,0.3-3.3,0.9-5,0.8c-0.2,0-1,0.1-1.1,0c-0.5-0.4,0.2-0.7,0.4-0.8
				c0.7-0.3,1.5-0.5,2.2-0.8c1.6-0.6,3.2-1,4.8-1.4c3.2-0.9,6.3-1.6,9.5-2.4c1.4-0.3,2.9-0.7,4.4-0.6c1.4,0.1,2.7,0.6,3.9,1.2
				c2.6,1.2,4.8,3,6.6,5.1c2.2,2.5,4.2,5.1,6.2,7.7c1,1.3,2,2.6,2.9,3.9c0.8,1.1,1.5,2.2,1.8,3.5c0.3,1.6-0.4,3-1,4.4
				c-0.6,1.6-1.2,3.2-1.9,4.8c-1.3,3.2-2.5,6.5-3.9,9.7c-0.9,2.3-1.7,5.4-4.3,6.3c2-6.6,5.4-12.7,6.3-19.7c-4,1.1-8,2.2-12,3.2
				c-4.3,1-8.7,1.6-13.1,1.9c-8.8,0.7-17.7,1.2-26.5,0.8c-2.3-0.1-4.5-0.3-6.7-0.6c-1.4-0.2-2.9,0-4,0.9c-1.2,0.9-1.8,2.3-2.4,3.6
				c-0.9,2-1.8,4-2.7,6c-3.7,8.2-7.8,16.1-11.7,24.1c-3.9,8-7.5,16.2-10.8,24.5c-1.7,4.1-3.2,8.3-4.8,12.5c-0.8,2.1-1.5,4.2-2.2,6.3
				c-0.4,1.2-1.4,3.1-0.8,4.4c0.6,1.2,2.6,1.4,3.7,1.7c2.1,0.5,4.2,1,6.4,1.3c4.3,0.5,8.7,0.4,13,0.4c4.5-0.1,8.8-0.6,13.1-1.7
				c4.4-1.1,8.8-2.1,13.2-3.1c8.6-1.9,17.1-4.4,25.5-7.2c4.1-1.4,8.3-2.7,12.3-4.5c4.1-1.8,8-4,12-6.1c1.9-1,3.8-1.9,5.6-2.8
				c1.9-1,3.7-2.3,5.5-3.6c3.6-2.6,7.1-5.3,10.6-7.9c7.1-5.4,13.8-11.2,20.6-17c3.2-2.8,6.4-5.5,9.2-8.7c0.3-0.3,0.6-0.7,0.9-1
				c0.1-0.2,0.3-0.3,0.4-0.5c0.3-0.3,0.4-0.3,0.3-0.6c-0.1-0.3-0.8-0.8-1-1c-0.3-0.3-0.7-0.7-1-1c-1.3-1.5-2.2-3.4-3.2-5.1
				c-0.9-1.6-1.9-3.3-2.7-5c-0.2-0.5-0.4-1-0.1-1.6c0.3-0.6,0.9-0.7,1.5-0.5c1.5,0.7,2.3,2.2,3,3.5c1,1.8,1.9,3.7,2.8,5.6
				c0.5,0.9,1.3,3.3,2.7,2.6c0.6-0.3,1-1,1.5-1.4c0.8-0.7,1.5-1.5,2.2-2.2c3-3.3,6-6.6,8.8-10c2.8-3.3,5.3-6.7,7.6-10.3
				c2.3-3.6,4.5-7.2,6.2-11.2c1.7-4,3.1-8.2,4.7-12.3c1.6-4,3.4-7.9,4.8-12c1.5-4.2,2.6-8.5,3.8-12.7c0.6-2.1,1.1-4.3,1.6-6.4
				c0.5-2.1,1.1-4.2,1.3-6.4c0.1-1.5,1-10.7-2.3-9.4c-1.8,0.7-3.3,1.7-5.2,2.2c-2,0.5-3.9,1.1-5.7,2.1c-3.9,2-7.6,4.2-11.3,6.4
				c-1.9,1.1-3.7,2.3-5.5,3.5c-0.9,0.6-1.8,1.2-2.7,1.8c-0.7,0.4-1.4,1.1-2.2,1.2c-1.6,0.4-2.4-1.6-1.1-2.5
				C360.6,381.6,362.1,380.6,363.5,379.6z M293,512.8c6,3.2,12.2,5.8,18.3,8.8c1.3,0.6,2.8,1.6,4.3,1.4c1.6-0.2,3.1-1.5,4.4-2.3
				c3-1.8,6-3.6,8.9-5.5c5.9-3.8,11.7-7.8,17.7-11.4c6-3.7,12.1-7.3,18.1-10.9c12-7.3,24-14.6,36.1-21.7c2.9-1.7,6.1-3.3,8.8-5.4
				c0.6-0.5,1.2-1,1.8-1.5c0.5-0.4,1.3-0.9,1.5-1.6c0.1-0.6-0.3-1.3-0.5-1.8c-0.4-0.8-0.8-1.6-1.1-2.3c-3-6-5.1-12-5.9-18.7
				c-0.4-3.3-0.5-6.6-0.3-9.9c0.1-1.7,0.3-3.4,0.6-5c0.1-0.8,0.3-1.6,0.4-2.4c0.1-0.4,0.7-2.2,0.5-2.6c-0.2-0.3-1.6-0.5-1.9-0.7
				c-0.6-0.3-1.3-0.6-1.9-0.9c-1.1-0.6-2.2-1.4-3.2-2.2c-2.1-1.7-4.1-3.6-6-5.5c-1-0.9-2-1.8-3.1-2.7c-1.7,4.3-3.2,8.7-5,13
				c-1.8,4.3-3.8,8.6-6,12.8c-2.2,4.2-4.4,8.3-7.5,11.9c-3.2,3.8-6.5,7.5-9.8,11.2c-6.4,7.2-12.6,14.5-19.9,20.8
				c-3.5,3.1-7.1,6-10.8,8.9c-3.7,3-7.3,6-11,8.9c-4.3,3.3-8.6,6.7-13.3,9.6C302.7,507.9,297.8,510.2,293,512.8z M310.2,331.7
				c0,0.3,1.2,0.1,1.4,0.1c0.5,0,0.9,0,1.4,0c0.7,0,1.6,0.2,2.2-0.4c0.4-0.4,0.4-1,0.3-1.5c-0.1-1.1-0.5-2.3-0.7-3.4
				c-1-4.7-1.4-9.6-2-14.3c-0.2-1.6-0.3-3.4-0.9-5c-0.3-0.8-0.8-1.3-1.6-1.4c-1.6-0.2-3.3,0.2-4.9,0.3c-2.4,0.2-4.9,0.5-7.3,0.7
				c-4.9,0.5-9.7,1-14.6,1.5c-2.4,0.3-4.8,0.4-7.2,0.8c-1.7,0.2-2.7,1.1-2.7,2.9c-0.1,4.9,0.4,9.8,0.8,14.7c0.1,1.2,0.2,2.4,0.3,3.6
				c0.1,0.8,0,1.8,0.3,2.6c0.5,1.3,1.8,1,2.9,0.8c2.6-0.4,5.2-0.5,7.8-0.2c2.7,0.3,5.2,0.1,7.9-0.2
				C299.3,332.9,304.8,332.3,310.2,331.7z M209.2,341.4c-0.1-0.4-0.2-0.6,0-0.8c0.2-0.1,0.7-0.2,0.9-0.2c0.5-0.1,1-0.3,1.5-0.4
				c1.2-0.3,2.5-0.6,3.8-0.7c2.5-0.2,5-0.4,7.6-0.6c4.9-0.3,9.8-0.6,14.6-1.2c4.9-0.6,9.8-1.2,14.6-1.7c2.5-0.3,4.9-0.5,7.4-0.7
				c0.8-0.1,1.9,0,2.6-0.4c0.7-0.5,0.6-1.3,0.5-2c-0.6-4.8-1.1-9.7-1.7-14.5c-0.1-0.7-0.1-1.7-0.8-2.1c-0.8-0.3-1.8,0.4-2.5,0.7
				c-2.3,0.9-4.5,1.9-6.8,2.9c-4.6,2-9.2,3.9-13.7,5.9c-4.5,2-9.2,3.8-13.7,5.9c-1.1,0.5-2.1,1.2-3.2,1.6c-1,0.3-2,0.5-3,0.8
				c-2,0.6-4,1.4-5.8,2.4c-1.9,1-3.6,2.3-5.1,3.8c-0.7,0.7-1.6,1.6-2.1,2.5c-0.6,1-0.5,2.2-0.8,3.3c2,0.3,3.9,0.5,6,0.5
				c2.1,0,4.2,0,6.3,0c4.2,0,8.4,0.1,12.6-0.2c4.1-0.3,8.1-0.8,12.1-1.1c4-0.2,8-1,12.1-1.1c2-0.1,4,0.4,6,0.3
				c0.9,0,1.8-0.2,2.7-0.3c0.8-0.1,1.8-0.1,2.5-0.6c0.7-0.5,0.4-1.1,0.2-1.8c-0.2-1-0.4-2-0.7-3c-0.2-0.6-0.4-1.5-1-1.8
				c-0.5-0.2-1.2,0.1-1.7,0.2c-1.6,0.5-3.5,0.5-5.2,0.6c-2.1,0.2-4.2,0.3-6.2,0.5c-2,0.2-4,0.3-6,0.8c-2,0.4-4.2,0.3-6.2,0.5
				c-4.7,0.3-9.5,0.5-14.2,0.8c-2.3,0.1-4.6,0.2-6.9,0.4C213.8,340.8,211.5,341.2,209.2,341.4z M252.4,442.9
				c5.1-0.5,10.2-1,15.4-1.4c4.9-0.5,10-0.6,14.8-1.6c4.7-0.9,9.2-2.5,13.5-4.4c0.6-0.3,1.6-0.5,1.8-1.2c0.3-0.8-0.4-1.8-0.8-2.4
				c-1.1-2-2.4-3.9-3.8-5.7c-1.5-2-3.2-4-4.9-5.9c-0.8-0.9-1.7-1.8-2.5-2.7c-0.9-1-1.8-1.5-2.9-2.2c-0.4,0.9-0.8,1.6-1,2.6
				c-0.1,0.7-0.3,1.3-0.7,1.9c-0.6,1-1.7,1.6-2.9,1.9c-4,1.2-8.3,1.9-12.4,2.7c-2.2,0.4-4.4,0.8-6.6,1.3c-1.7,0.3-3.4,0.5-5,1.2
				c-1.5,0.6-2.5,1.6-3.3,3.1c-1,1.9-2,3.9-3,5.8c-0.5,1.1-1.1,2.2-1.6,3.3c-0.4,0.9-0.9,1.4-0.3,2.3c0.5,0.7,1.6,0.8,2.4,0.9
				C249.9,442.5,251.2,442.7,252.4,442.9z M412.1,505.9c-0.4,0.5-0.9,0.9-1.4,1.4c-0.5,0.7-0.9,1.4-1.2,2.2
				c-0.8,1.7-1.6,3.4-2.3,5.2c-1.3,3.2-2.2,6.7-3,10c-0.8,3.4-1.2,6.9-0.6,10.3c0.3,1.8,0.9,3.5,1.6,5.1c0.7,1.6,1.1,3.3,1.5,4.9
				c0.2,0.9,0.4,3.4,1.6,3.6c0.5,0.1,1-0.3,1.4-0.6c0.8-0.6,1.5-1.2,2.2-1.8c3.1-2.4,6.2-4.8,9.3-7.1c1.5-1.2,3.1-2.3,4.6-3.5
				c0.7-0.6,1.5-1.1,2.2-1.7c0.7-0.5,1.7-1.1,2.2-1.8c0.8-1.3-0.9-2.6-1.7-3.5c-1.2-1.3-2.2-2.7-3.1-4.2c-2.1-3.5-4.5-6.8-6.9-10.1
				c-0.5-0.7-1.1-1.4-1.4-2.3c-0.2-0.7-0.3-1.4-0.8-2C415.2,508.5,413.6,507.2,412.1,505.9z M348.1,318.8c0.9-1,1.6-2.2,2.4-3.2
				c0.9-1,2-1.6,3.1-2.3c2.2-1.5,4-3.5,5.8-5.4c0.9-1,1.9-1.9,2.9-2.8c0.4-0.4,0.8-0.8,1.2-1.2c0.4-0.5,1.1-0.9,0.5-1.5
				c-0.7-0.7-2.5-0.5-3.4-0.5c-1.7-0.1-3.4-0.1-5.1-0.1c-6.7,0.1-13.2,1.4-19.9,1.7c-3,0.1-6.1,0-9.1,0.4c-2.2,0.3-1.4,2.7-1.3,4.3
				c0.3,3.7,0.7,7.4,1.1,11.1c0.2,1.9,0.4,3.8,0.6,5.6c0.2,1.8,0.7,3.6,1.1,5.4c1.5-0.4,3.1-0.8,4.5-1.5c1.1-0.6,2.1-1.5,3-2.3
				c1.8-1.6,3.7-2.8,5.7-4c1.2-0.7,2.3-1.4,3.5-2.1C345.9,319.5,346.9,319.1,348.1,318.8z M305.2,391c0.7-0.5,1-0.8,1.5-1.6
				c0.5-0.9,1-1.7,1.5-2.6c1-1.8,1.8-3.6,2.3-5.6c0.6-2.3,1.9-7.3-1.7-7.5c-2.2-0.1-4.4,0.1-6.6,0.2c-2.4,0.1-4.8,0.2-7.1,0.3
				s-4.8,0.2-7.1,0.3c-2,0.1-4.3-0.1-6.2,0.4c-1.4,0.4-2.4,1.4-2.8,2.8c-0.6,2.2-1,4.5-1.3,6.8c-0.6,3.7-0.9,7.3,1.6,10.4
				c1,1.3,2.3,2.3,3.6,3.2c0.4,0.3,1.1,0.7,1.6,0.5c0.6-0.2,0.6-1,0.7-1.6c0.3-3.3,1.3-6.4,3.5-9c1.1-1.4,2.5-2.5,3.9-3.5
				c1.5-1,3.2-2.2,5-2.4c1.8-0.2,3.4,0.8,4.3,2.3C303.2,386.5,304.1,388.8,305.2,391z M218,347.8c0,0.4-0.2,0.3-0.6,0.3
				c-0.3,0-0.7,0-1,0c-0.6,0-1.2,0-1.8,0c-1.3,0-2.6,0-3.9,0c-1.2,0-2.5,0-3.7,0c-0.8,0-2.2-0.2-2.9,0.3c-1.1,0.7,0.4,2.8,0.9,3.5
				c0.5,0.6,1,1,1.8,1.1c0.5,0.1,0.7,0.1,1.1,0.5c0.3,0.3,0.2,0.8,0.5,1.1c0.4,0.5,1,0.5,1.6,0.5c1.2-0.1,2.4-0.2,3.6-0.3
				c2.6-0.2,5.2-0.4,7.8-0.5c5.1-0.3,10.1-0.4,15.2-0.7c5-0.3,10-0.7,15-1.1c2.6-0.2,5.1-0.4,7.7-0.5c1.6-0.1,3.4,0.1,4.9-0.3
				c0.7-0.2,0.9-0.6,0.9-1.3c0-0.5-0.1-0.9-0.2-1.4c-0.1-0.7-0.1-1.6-0.4-2.2c-0.3-0.6-0.7-0.8-1.3-0.9c-1.2-0.1-2.5,0.1-3.6,0.1
				c-2.6,0.1-5.1,0.2-7.7,0.3c-5.6,0.3-11.2,0.7-16.9,1.2C229.2,347.9,223.6,347.8,218,347.8z M301.4,340.1c2.9,0.3,5.8-0.1,8.7-0.8
				c1.3-0.3,2.6-0.7,3.9-1.1c1.3-0.4,2.3-0.5,2.6-2c0.2-0.9,0.1-1.9-0.7-2.4c-0.9-0.7-2.3-0.5-3.4-0.4c-3.3,0.2-6.6,0.5-9.9,0.8
				c-6.6,0.6-13.3,1.2-20,1.2c-1.6,0-3.4-0.3-5,0c-1.4,0.3-1.6,1.4-1.6,2.6c0,1.2,0,3.2,0.7,4.2c0.8,1.1,2.3,0.7,3.5,0.6
				C287.4,342.2,294.4,341.2,301.4,340.1z M357.6,299.1c0.1,0.6,0.1,0.6,0.6,0.6c0.4,0,0.9,0,1.3,0c0.9,0,1.9,0,2.8,0
				c0.9,0,2.6,0.2,3.2-0.7c0.5-0.8,0.2-2.5,0.1-3.4c-0.1-0.7-0.1-1.5-0.5-2.1c-0.7-1.2-2.4-1.1-3.6-1c-3.3,0.2-6.6,0.8-9.8,1.3
				c-3.7,0.6-7.4,1.1-11.2,1.5c-3.7,0.3-7.3,0.2-10.9,1c-0.9,0.2-1.7,0.4-2.6,0.6c-0.7,0.2-1.6,0.2-2.2,0.7
				c-0.7,0.6-0.6,1.8-0.5,2.7c0.2,1.4,1.1,1.4,2.3,1.4c1.8-0.1,3.7-0.1,5.6-0.2c4.1-0.1,8.2-0.2,12.3-0.7
				C349,300.3,353.3,299.7,357.6,299.1z M325.2,326.5c0.2,0-1.7-15.1-1.9-16.6c-0.2-1.4-0.3-2.7-0.5-4.1c-0.1-0.7-0.3-1.5-1.1-1.7
				c-0.9-0.3-2.2,0.2-3.1,0.3c-1.2,0.2-2.8,0.2-3.9,0.7c-0.7,0.3-0.9,0.9-0.8,1.7c0.1,1.4,0.4,2.8,0.7,4.2c0.5,2.9,0.9,5.8,1.4,8.7
				c0.4,2.8,0.9,5.5,1.4,8.3c0.2,1.1,0.3,2.8,1.4,3.5c1.2,0.7,3.3,0.1,4.5-0.2C325.8,330.7,325.4,328.5,325.2,326.5z M272.6,329
				c0.4-0.1,0.1-1.2,0-1.6c-0.1-0.5-0.1-1.1-0.2-1.6c-0.2-1.3-0.3-2.6-0.5-4c-0.3-2.5-0.7-5-1-7.5c-0.1-1,0-2.5-1.4-2.2
				c-1.5,0.3-3.2,0.9-4.5,1.8c-1,0.7-1.4,1.6-1.4,2.8c0,2.2,0.3,4.5,0.5,6.7c0.2,2.5,0.5,4.9,0.8,7.4c0.1,0.9,0,2.3,0.5,3.1
				c0.4,0.8,1.5,1,2.3,1.2c1.4,0.3,3,0.2,4-0.9C272.9,332.7,272.7,330.7,272.6,329z M280,344.8c-0.1-0.2-0.1-0.3-0.2-0.5
				c-0.7,0.3-1.4,0.4-2.1,0.7c-0.7,0.3-0.8,1-1,1.7c-0.2,1.2,0.1,2.5,1.2,3.3c1.2,0.9,2.8,0.7,4.1,0.4c1.9-0.4,3.8-0.8,5.7-1.4
				c1.8-0.6,3.7-1.2,5.6-1.5c1-0.2,1.9-0.1,2.9-0.2c1-0.1,2-0.7,2.8-1.3c0.8-0.5,1.5-1.1,2.2-1.7c0.5-0.4,1.3-1,0.5-1.6
				c-0.8-0.5-1.9-0.2-2.8-0.1c-1.2,0.1-2.3,0.2-3.5,0.3C290.3,343.4,285.2,344.2,280,344.8z M278.5,376.5c-2.3-1.3-5.1-1.1-6.6,1.2
				c-1.6,2.4-2.3,5.3-2.4,8.2c-0.1,2.5,0,5.4,2.8,6.2c1,0.3,2.4,0.2,3-0.8c0.3-0.5,0.2-1.1,0.2-1.8c0-0.9,0-1.7,0.1-2.6
				C275.9,383.3,277.1,379.9,278.5,376.5z M284.9,305c0.1,0.7,0.1,0.8,0.8,0.8c0.5,0,0.9,0.1,1.4,0c1-0.1,2-0.2,3-0.3
				c2.1-0.2,4.2-0.4,6.3-0.6c4.2-0.4,8.5-0.7,12.7-1.1c1.2-0.1,2.2-0.4,1.9-1.8c-0.1-0.9-0.3-2.2-1.3-2.5c-0.7-0.3-1.6,0-2.3,0.1
				c-1,0.2-2,0.3-3.1,0.5c-2.1,0.3-4.2,0.7-6.3,1c-2.2,0.4-4.5,0.8-6.7,1.4C289.2,303.3,287.1,304.2,284.9,305z M269.7,336.4
				c-1.2,0-3.7-0.5-3.6,1.4c0,1.1,0.4,2.2,0.7,3.3c0.2,0.7,0.3,1.5,0.9,2c0.6,0.4,1.6,0.4,2.4,0.4c1,0,2.3,0.2,3.2-0.1
				c0.7-0.3,0.7-0.8,0.7-1.5c0-1.1,0-2.3-0.2-3.5C273.5,336.1,271.5,336.4,269.7,336.4z M271.4,345.1c-1.2,0.1-2.7,0-3.7,0.8
				c-0.8,0.6-0.6,1.7-0.5,2.7c0,0.8,0,1.8,0.7,2.4c0.8,0.7,2.2,0.6,3.2,0.6c2.1-0.1,4.3-0.2,4.3-2.9
				C275.3,346.5,273.4,345.1,271.4,345.1z M314.5,297.3c1.4-0.3,2.7-0.5,4.1-0.8c0.7-0.1,1.6-0.2,2.3-0.6c1.3-0.7,0.7-2.6,0.5-3.8
				c-0.2-1.1-0.5-2-1.8-1.6c-1.5,0.5-3,1.4-4.5,2c-1.1,0.5-2.7,1-2.7,2.5C312.5,296.5,313.5,296.7,314.5,297.3z M312.9,299.2
				c0.5,1.2,0.1,3.4,1.8,3.8c1.1,0.3,2.5,0,3.6-0.1c0.9-0.1,2.7-0.2,3.2-0.8c0.5-0.5,0.6-1.6,0.5-2.3c-0.2-1-0.8-1.4-1.7-1.3
				C317.8,298.6,315.3,298.9,312.9,299.2z M297.1,383.9c-0.7,0.3-1.1,0.3-1.6,0.9c-0.4,0.6-0.8,1.2-1.2,1.8c0.9,0.2,1.7,0.5,2.6,0.5
				c0.7,0,1.5-0.4,2.2-0.8C301.2,385.2,298.1,384.2,297.1,383.9z M405,551.8c1.3-1.6,0.7-5.7-1.1-7.3
				C403,546.8,403.5,550.3,405,551.8z M367.1,294.3c0.5,0.6,1,1.2,1.6,1.8c0.8-0.9,1.6-1.8,2.5-2.7c-0.9-0.5-1.7-1.4-2.8-1.1
				C367.4,292.5,367.1,293.5,367.1,294.3z M302.6,297.9c0.5,0.7,0.9,0.4,1.7,0.2c0.8-0.1,1.5-0.3,2.3-0.4c0.8-0.1,3.2-0.1,3.2-1.3
				c0-0.4-0.5-0.6-0.9-0.7c-0.6-0.1-1.2,0.2-1.8,0.4C305.6,296.7,304.1,297.3,302.6,297.9z M322,333.7c-0.8,0-1.5,0-2.3,0
				c-0.1,0-0.7-0.1-0.8,0c-0.4,0.3,0,0.7,0.3,0.8c0.4,0.2,1.3,0.9,1.7,0.7C321.4,335,321.8,334.1,322,333.7z"/>
			<path style="fill:#FFFFFF;" d="M303,298.4c-0.1,0-0.2-0.2-0.4-0.5"/>
			<path style="fill:#FFFFFF;" d="M309.8,296.3c0.1,0-0.2,0.9-0.4,0.9"/>
			<path d="M364,421.2c4.4-9.3,7.5-19.1,8.7-29.3c-0.9,0.4-1.8,0.6-2.6,1.3c-1,0.7-2,1.5-2.9,2.2c-0.9,0.7-1.7,1.4-2.7,2
				c-1.1,0.6-1.8,0.3-2.9,0c0.2-0.5,0.2-1.3,0.6-1.7c0.6-0.7,1.7-1.1,2.5-1.6c1.7-1,3.3-2,5-3c3.3-2,6.6-3.9,9.9-5.9
				c1.6-0.9,3.2-1.8,4.9-2.7c0.7-0.3,1.2-0.6,2-0.3c0.6,0.2,1.2,0.6,1,1.2c-0.4,1.4-2.6,2-3.7,2.6c-1.4,0.7-2.9,0.9-4.2,1.7
				c-2.1,1.3-3.2,3.5-3.8,5.8c-0.8,3.1-1.1,6.2-1.7,9.3c-0.7,3.7-2.3,7.2-3.7,10.6c-0.8,1.8-1.5,3.6-2.3,5.4
				c-0.7,1.7-1.4,3.5-2.3,5.2c-0.3,0.6-0.8,1.1-1.4,1.4c-0.7,0.3-1.2,0.1-1.8-0.3c-1.6-0.9-2.4-2.3-2.8-4.1
				c-0.1-0.8-0.4-1.7-0.1-2.5c0.1-0.3,0.5-0.9,0.8-1.1c0.2-0.2,0-0.2,0.3-0.2c0.2,0,0.4,0.2,0.6,0.3c0.7,0.4,1.2,0.7,1.4,1.5
				c0.2,0.5,0.2,0.9,0.3,1.4c0,0.1,0,0.3,0.1,0.5C363.3,421.3,363.5,421.2,364,421.2z"/>
			<path d="M304.1,458.2c2.7-8,5.4-16,8-24c0.2-0.6,0.2-1.3,0.7-1.7c0.5-0.4,1.5-0.7,1.9-0.1c0.4,0.7,0.2,1.3-0.1,2
				c-0.4,1.1-0.7,2.1-1.1,3.2c-1.4,4-2.8,8.1-4.2,12.1c-0.8,2.2-1.5,4.4-2.3,6.6C306.6,457.8,305.9,458.9,304.1,458.2z"/>
			<path d="M307.7,404.6c-2,3-6,4.4-9.3,5c-4.2,0.8-8.8,0.6-12.8-1.2c-2.2-1-4.1-2.6-5.5-4.6c1.2,0.2,2.3-0.1,3.4,0.7
				c1.1,0.8,2.1,1.5,3.3,2.1c2.2,1.1,4.7,1.6,7.1,1.5c2.4-0.1,4.8-0.7,7-1.6c1.2-0.5,2.4-1,3.5-1.6c0.6-0.3,1.1-0.6,1.8-0.7
				c0.2-0.1,0.5-0.2,0.8-0.2C307.6,404.1,307.5,404,307.7,404.6z"/>
			<path d="M330.2,384.7c-2.9,2-13.8,2.7-15.8,1.1C316.1,384.1,328.4,383.2,330.2,384.7z"/>
			<path d="M316.8,391.2c1.3,0,2.7-0.1,4,0c1.3,0.1,2.7,0.3,4,0.5c1.3,0.2,2.5,0.4,3.8,0.7c0.5,0.1,1.1,0.1,1.5,0.5
				c0.3,0.3,0.5,0.8,0.8,1.2c-0.7,0.1-1.3,0.3-2,0.2c-0.7-0.1-1.4-0.2-2.1-0.3c-1.3-0.2-2.7-0.4-4-0.6c-1.3-0.2-2.5-0.2-3.8-0.4
				c-0.5-0.1-1-0.2-1.5-0.4c-0.2-0.1-0.6-0.3-0.8-0.5C316.5,391.7,316.6,391.7,316.8,391.2z"/>
			<path d="M328.9,398.6c-1,0.2-2,0.5-3.1,0.4c-1.2-0.1-2.4-0.2-3.7-0.4c-1.2-0.1-2.3-0.3-3.5-0.4c-0.5-0.1-1.2-0.1-1.7-0.2
				c-0.5-0.2-0.8-0.6-1.2-0.9c0.7-0.8,1.2-1.3,2.4-1.2c1.3,0.1,2.7,0.4,4,0.6c1.3,0.2,2.5,0.4,3.8,0.6c0.6,0.1,1.3,0.2,1.9,0.3
				c0.2,0,0.8,0,1,0.2C329,397.7,328.9,398.4,328.9,398.6z"/>
		</g>
		<g>
			<path d="M204.2,347.4c3.7-6.9,11.2-9.7,18.1-12.2c8.9-3.1,17.8-6.2,26.5-9.9c17-7.1,33.6-15.3,49.8-24c8-4.3,15.9-8.6,24.1-12.4
				c8-3.7,16.1-7,24.9-8c8.5-1.1,17.2-0.6,25.7,0.2c4.3,0.4,8.5,0.9,12.7,1.4c3.4,0.4,6.8,0.8,10.1,1.6c3.2,0.8,6.3,1.9,8.9,3.9
				c3,2.3,4.8,5.4,6.4,8.7c1.7,3.5,3.1,7.2,5.2,10.5c1.2,1.9,4.2,6.9,6.6,3.6c0.9-1.2,0.6-2.4-0.4-3.5c-1.3-1.4-2.3-3-3.2-4.7
				c-1.9-3.4-3.1-7-4.9-10.4c-1.7-3.4-4-6.4-7-8.6c-2.9-2.1-6.3-3.5-9.8-4.4c-8.9-2.2-18.3-2.6-27.5-3.3c-9.2-0.6-18.5-1.2-27.6,0.4
				c-8.8,1.6-16.9,5.6-24.9,9.6c-8.5,4.2-16.9,8.6-25.3,12.9c-16.6,8.5-33.4,16.9-50.7,23.8c-8.6,3.4-17.5,6-26.1,9.5
				c-3.4,1.4-6.7,3-9.6,5.2c-1.4,1.1-2.7,2.3-3.9,3.7c-1,1.2-2.5,2.9-2.8,4.5C199.2,348.3,202.9,349.8,204.2,347.4z"/>
		</g>
		<g>
			<path d="M385.7,281.5c-1.5-0.9-3.7-0.5-5-1.8c-0.6,1.4-1.2,2.8-1.8,4.3c3,0.1,6,0.3,8.9,0.8c2.6,0.5,4.7,1.6,7.1,2.5
				c1.5,0.6,3.1,0.8,3.8-0.9c0.6-1.3,0-2.8-1.3-3.5c-2.1-1-4.5-2-6.7-2.6c-2.8-0.8-5.8-1-8.7-1.2c-1.9-0.1-4.6-0.8-5.4,1.5
				c-0.8,2.1,1.3,3.4,3.1,3.9c1.3,0.4,2.5,0.7,3.7,1.3c0.8,0.4,1.6,0.4,2.3-0.1C387.2,284.8,387.3,282.5,385.7,281.5z"/>
		</g>
	</g>
</g>
<path style="fill:#FFFFFF;" d="M297.6,63.3C100.1,63.3-60,223.4-60,420.9s160.1,357.6,357.6,357.6s357.6-160.1,357.6-357.6
	S495.1,63.3,297.6,63.3z M297.6,567.7c-68,0-125.3-46.3-141.9-109.1l-110.9,2.8l-7-70.3l115.4,2.6c12.8-68,72.5-119.5,144.3-119.5
	c81.1,0,146.8,65.7,146.8,146.8S378.7,567.7,297.6,567.7z"/>
<g>
	<path d="M86.8,341.6c-0.1,0.2-0.2,0.5-0.4,0.8c-1.7,2.7-2.9,5.4-3.7,8.2c-0.4,1.4-0.7,3-0.9,4.8c-0.2,1.8-0.3,3.7-0.3,5.8
		c1.2,0.2,2.1,0.3,2.8,0.5c2.4,0.7,5.7,1.8,9.9,3.3l2.1-11.8c0.6-3.5,1-5.6,1.2-6.3c0.2-0.8,0.6-1.3,1.3-1.7
		c0.6-0.4,1.4-0.5,2.2-0.2c1.6,0.4,2.2,1.5,2,3.2l-1.2,6.4l-2.3,12.4c1.2,0.4,2.4,0.8,3.5,1.2c1.1,0.4,2.1,0.7,3.1,0.9
		c3.9,1.1,6.2,1.5,7,1.1c0.6-0.3,1.2-1.6,1.9-3.9c0.3-1.1,0.7-2.7,1.3-4.9c0.6-2.2,1-3.8,1.3-4.9c0.1-0.3,0.2-0.9,0.3-1.6
		c0.1-0.7,0.2-1.2,0.3-1.6c0.5-1.8,1.7-2.5,3.5-2c1.5,0.4,2.1,1.4,2,3c-0.1,1.7-1,5.3-2.5,10.8c-1.5,5.4-3.2,8.7-5.1,9.8
		c-2,1.2-5.8,1.1-11.4-0.5c-1.1-0.3-2.3-0.7-3.6-1.1c-1.3-0.4-2.7-0.9-4.2-1.4c-0.5,0.1-0.9,0.1-1.4-0.1c-0.6-0.2-1.1-0.5-1.5-0.9
		c-4.9-1.8-8.6-3-11-3.7c-0.6-0.2-1.6-0.4-2.9-0.5c-1.3-0.2-2.3-0.4-2.9-0.5c-2.1-0.6-2.9-1.8-2.4-3.5c0.2-0.7,0.6-1.3,1.3-1.7
		c0-2.2,0.2-4.3,0.4-6.3c0.2-1.9,0.6-3.7,1.1-5.4c1.2-4.2,2.7-7.5,4.4-9.7c0.8-1,1.8-1.4,3-1c0.7,0.2,1.3,0.6,1.7,1.2
		C86.9,340.2,87,340.9,86.8,341.6z"/>
	<path d="M108.4,300.4c-0.6,1.2-1.6,3-3.1,5.4c-1.4,2.3-2.4,4.1-3,5.4l-0.9,1.7c2.3,1.1,6,2.7,11.2,4.8c4.9,2,8.6,3.6,11.2,5
		c0.6,0.3,1.5,0.7,2.7,1.1c1.2,0.5,2.1,0.8,2.7,1.1c1.1,0.6,2,1.2,2.6,2c0.8,1,1,2,0.5,2.9c-0.3,0.6-0.8,1.1-1.6,1.4
		c-0.7,0.3-1.4,0.3-2.1-0.1c-0.2-0.1-0.6-0.3-1-0.7c-0.4-0.3-0.8-0.5-1-0.7c-0.8-0.4-2-0.9-3.6-1.6c-1.6-0.7-2.9-1.2-3.7-1.7
		c-2.3-1.2-5.7-2.6-10-4.4c-4.7-1.9-8.1-3.3-10.1-4.3l-1.1,2.2c-1.8,3.5-3.4,6.2-5,8c-1,1.1-2.1,1.4-3.4,0.8
		c-0.7-0.3-1.1-0.8-1.4-1.5c-0.3-0.8-0.3-1.5,0.2-2.3c0.3-0.5,1.1-1.8,2.4-3.7c1-1.5,1.8-2.8,2.3-3.8c0.5-1,1.2-2.5,2.2-4.4
		c1-2,1.7-3.5,2.2-4.4c0.6-1.2,1.6-3,3.1-5.4c1.4-2.4,2.4-4.2,3.1-5.4c0.4-0.7,0.9-1.2,1.6-1.4c0.7-0.2,1.4-0.2,2.1,0.2
		c0.7,0.4,1.2,0.9,1.4,1.6C108.8,299,108.8,299.7,108.4,300.4z"/>
	<path d="M135.4,309.5c-0.6-0.5-0.9-1-1-1.8s0.2-1.4,0.6-2c0.5-0.7,1.4-1,2.6-0.9c1.7,0.1,2.9,0.1,3.7-0.2c1.7-0.6,3.5-2,5.3-4.3
		c1.7-2.2,2.9-4.6,3.4-7.3c0.7-3.4-0.1-5.9-2.3-7.6c-1.8-1.4-4-1.5-6.7-0.3c-2.3,1-4.4,2.8-6.5,5.3c-1.9,2.2-3.8,3.7-6,4.6
		c-2.7,1.1-5.2,0.8-7.3-0.9c-2.5-2-3.7-5.2-3.6-9.8c0.2-4.3,1.4-7.9,3.7-10.9c1.1-1.4,2.5-2.8,4.4-4.1c2.4-1.8,4.1-2.4,5.1-1.6
		c1.3,1,1.4,2.1,0.4,3.4c-0.4,0.6-1.4,1.4-2.8,2.6c-1.4,1.2-2.4,2.2-3,3c-1.7,2.2-2.6,4.6-2.8,7c-0.2,2.5,0.6,4.3,2.1,5.5
		c1.2,0.9,2.8,0.5,5-1.2c0.8-0.6,2.2-2,4.1-4.2c2.8-3.1,5.8-4.8,9.1-5.2c3-0.4,5.6,0.4,8,2.2c3.4,2.7,4.9,6.4,4.4,11.1
		c-0.4,4.1-2,7.9-4.8,11.5c-2,2.6-4.4,4.6-7.1,6C140.3,311.1,137.6,311.2,135.4,309.5z"/>
	<path d="M158.4,245.1c-0.9,0.8-2,1.7-3.5,2.6l-3.6,2.5c3.2,4.2,6.4,8.1,9.6,11.7c0.8,0.9,1.9,2.1,3.2,3.4c1.3,1.3,2.4,2.5,3.2,3.4
		c1.1,1.3,2.1,2.5,2.9,3.6l6.3-5.8c0.6-0.5,1.2-0.7,2-0.7c0.7,0.1,1.4,0.4,1.9,1c0.5,0.6,0.8,1.3,0.7,2c0,0.7-0.3,1.4-0.9,1.9
		c-0.8,0.7-1.9,1.7-3.4,3.1c-1.5,1.4-2.6,2.4-3.4,3.1c-0.9,0.8-2.1,2.1-3.7,3.9c-1.6,1.8-2.8,3.2-3.7,4c-0.6,0.5-1.2,0.7-2,0.7
		c-0.7-0.1-1.4-0.4-1.9-1s-0.8-1.2-0.7-2c0-0.7,0.3-1.4,0.9-1.9c0.9-0.8,2.2-2.2,4-4.3c-0.8-1.2-1.9-2.5-3.1-3.9
		c-0.8-0.9-1.9-2-3.2-3.3c-1.3-1.3-2.3-2.4-3.2-3.3c-2.8-3.1-6.1-7.2-9.8-12.2l-2.6,2.4l-2.6,2.4c-0.6,0.5-1.2,0.8-2,0.7
		c-0.7,0-1.4-0.4-1.9-1c-1.1-1.3-1.1-2.5,0.1-3.8c1-1.1,3-3,6-5.6c2.7-2.4,6.3-5.1,10.9-8.1c1.4-0.9,2.6-0.7,3.7,0.6
		c0.6,0.6,0.8,1.3,0.7,2.1C159.2,244,158.9,244.6,158.4,245.1z"/>
	<path d="M193.4,217.8c-0.1,2,0.1,4,0.5,6l1.4,6.1l4.2,20.6c0.5,2.4,0.8,4.9,1,7.4c0.1,1.2-0.3,2.1-1.2,2.7
		c-1.2,0.7-2.4,0.6-3.6-0.3c-4.8-3.5-11-9-18.7-16.4l-5.8-5.2c-2.9-2.6-4.6-4.5-5.3-5.4c-0.4-0.7-0.5-1.4-0.3-2.2
		c0.2-0.7,0.6-1.2,1.2-1.6c1.2-0.7,2.3-0.6,3.4,0.5l3.3,3.5l7.1,6.5c5,4.8,9.5,8.9,13.5,12.1l-0.1-0.5l-4.2-20.6l-1.5-6.9
		c-0.5-2.8-0.7-5.1-0.4-6.9c0.1-0.9,0.5-1.6,1.2-2c0.6-0.4,1.3-0.5,2.1-0.3c0.8,0.2,1.4,0.6,1.8,1.2
		C193.2,216.6,193.4,217.2,193.4,217.8z"/>
	<path d="M212.6,196.7c2.2-0.8,3.7-0.3,4.3,1.4c0.2,0.5,0,1.1-0.6,1.9c-0.5,0.7-1.1,1.1-1.7,1.3c-2.1,0.8-3.5,0.3-4.1-1.5
		c-0.2-0.5,0-1.1,0.4-1.8C211.5,197.4,212,196.9,212.6,196.7z M244,238.8c-1.6,0.6-3.7-0.9-6.3-4.5c-1-1.4-2.5-3.8-4.6-7.4
		c-1.6,0.9-3.8,2.1-6.3,3.8l-6.3,3.9c0,2.5-0.3,6.3-0.8,11.4c-0.2,1.2-0.8,1.9-1.7,2.2c-0.7,0.3-1.4,0.2-2.1-0.1
		c-0.7-0.3-1.2-0.8-1.5-1.5c-0.3-0.8-0.2-4.4,0.4-10.7c-0.5-0.3-0.8-0.8-1-1.4c-0.5-1.4,0-2.6,1.5-3.6c0.6-4.4,1.5-9.4,2.7-15.3
		c1.7-7.9,3-12.1,4-12.4c1.3-0.5,2.6,0.1,3.8,1.8l4.8,8l10.3,16.3l2.9,3.5c1,1.2,1.6,2,1.8,2.5c0.3,0.7,0.2,1.4-0.1,2.1
		C245.2,238,244.7,238.5,244,238.8z M224.2,212.9l-3,14.4c1.9-1.3,4.7-3.1,8.7-5.4L224.2,212.9z M226.3,191.4
		c0.6-0.2,1.3-0.2,2.1,0.2c0.8,0.3,1.3,0.7,1.5,1.2c0.6,1.6-0.4,2.8-2.8,3.7c-0.7,0.3-1.4,0.3-2.1,0.1c-0.8-0.2-1.3-0.6-1.5-1.3
		c-0.4-1.2-0.3-2.1,0.3-2.7C224.1,192.3,225,191.9,226.3,191.4z"/>
	<path d="M279.9,196.9c-1.3,0.2-3.4,0.4-6.2,0.6c-2.7,0.2-4.8,0.4-6.2,0.6l-1.9,0.3c0.4,2.5,1.3,6.4,2.5,11.9c1.2,5.1,2,9.1,2.4,12
		c0.1,0.6,0.3,1.6,0.6,2.8c0.3,1.3,0.5,2.2,0.6,2.8c0.2,1.2,0.1,2.3-0.1,3.2c-0.3,1.3-1,2-2.1,2.1c-0.7,0.1-1.4,0-2-0.5
		c-0.6-0.4-1-1-1.1-1.8c0-0.3-0.1-0.7,0-1.2c0-0.6,0-1,0-1.2c-0.1-0.9-0.4-2.2-0.8-3.9c-0.4-1.7-0.6-3.1-0.8-4
		c-0.4-2.6-1.1-6.1-2.2-10.7c-1.2-5-1.9-8.5-2.3-10.7l-2.4,0.4c-3.9,0.6-7.1,0.8-9.4,0.5c-1.5-0.2-2.4-0.9-2.6-2.3
		c-0.1-0.7,0-1.4,0.4-2c0.4-0.7,1.1-1.1,1.9-1.2c0.6-0.1,2.1-0.1,4.4-0.2c1.8-0.1,3.3-0.2,4.4-0.3c1.1-0.2,2.7-0.4,4.9-0.8
		c2.2-0.4,3.8-0.6,4.9-0.8c1.4-0.2,3.4-0.4,6.2-0.6c2.7-0.2,4.8-0.4,6.2-0.6c0.8-0.1,1.5,0.1,2.1,0.5c0.6,0.5,1,1.1,1.1,1.9
		c0.1,0.8,0,1.5-0.5,2.1C281.2,196.4,280.6,196.8,279.9,196.9z"/>
	<path d="M305.5,233.6c-5.1-0.3-9.3-2.1-12.7-5.4c-3.5-3.5-5.2-7.8-4.8-13c0.4-6.3,2.6-11.8,6.7-16.7c4.5-5.4,9.9-7.9,16-7.5
		c5.9,0.4,10.3,2,13,4.9c2.8,3,4.1,7.5,3.7,13.5c-0.4,6.3-2.5,11.8-6.2,16.6C316.9,231.4,311.6,234,305.5,233.6z M310.3,196.5
		c-4.4-0.3-8.3,1.7-11.7,5.9c-3.1,3.9-4.8,8.2-5.1,13.1c-0.2,3.5,0.9,6.4,3.3,8.8c2.3,2.2,5.3,3.5,9,3.7c4.4,0.3,8.2-1.7,11.3-5.9
		c2.8-3.8,4.4-8.2,4.7-13.1c0.3-4.3-0.5-7.4-2.3-9.3C317.8,197.9,314.7,196.8,310.3,196.5z"/>
	<path d="M360.2,207.7c-1.1-0.3-2.5-0.8-4.1-1.5l-4.1-1.7c-1.8,5-3.3,9.8-4.5,14.4c-0.3,1.2-0.7,2.7-1.1,4.6
		c-0.4,1.8-0.8,3.3-1.1,4.6c-0.4,1.6-0.9,3.1-1.4,4.4l8.3,2.1c0.7,0.2,1.3,0.6,1.6,1.3c0.4,0.6,0.4,1.4,0.2,2.1
		c-0.2,0.8-0.6,1.3-1.3,1.7s-1.3,0.5-2.1,0.3c-1-0.3-2.5-0.6-4.4-1.1c-2-0.5-3.4-0.8-4.4-1.1c-1.2-0.3-2.9-0.6-5.3-0.9
		c-2.4-0.3-4.2-0.6-5.3-0.9c-0.7-0.2-1.3-0.6-1.6-1.3c-0.4-0.6-0.4-1.4-0.2-2.1c0.2-0.8,0.6-1.3,1.3-1.7s1.3-0.5,2.1-0.3
		c1.1,0.3,3.1,0.6,5.8,1c0.6-1.4,1.1-3,1.6-4.8c0.3-1.2,0.7-2.7,1-4.5c0.4-1.8,0.7-3.3,1-4.4c1.1-4,2.7-9,4.8-15l-3.4-0.8l-3.4-0.8
		c-0.8-0.2-1.3-0.6-1.7-1.3c-0.4-0.6-0.5-1.4-0.2-2.1c0.4-1.6,1.5-2.3,3.2-2c1.5,0.2,4.1,0.9,8,1.9c3.5,0.9,7.8,2.5,12.8,4.6
		c1.5,0.6,2,1.8,1.6,3.4c-0.2,0.8-0.7,1.4-1.4,1.7C361.5,207.9,360.9,207.9,360.2,207.7z"/>
	<path d="M392.7,262c-0.9-0.4-1.4-1.3-1.5-2.5c-0.1-1,0.1-2.5,0.7-4.5l1.2-4.6c0.6-2.9,2.5-9.2,5.5-18.7l-12.3,12.2l-3.8,3.9
		c-1.5,1.5-2.9,2.7-4.1,3.6c-1.3,0.9-2.5,1-3.7,0.5c-1-0.5-1.4-1.4-1.5-2.7c0-0.9,0.1-1.9,0.3-3.1l0.7-3c1.3-6.5,2.9-13.4,5-20.5
		l-3.1,3.9l-9.6,11.2c-0.9,1.4-2.4,3.5-4.6,6.1c-1.1,1-2.2,1.2-3.4,0.7c-0.8-0.4-1.3-1-1.5-1.8c-0.2-0.7-0.1-1.4,0.3-2.1
		c1.4-2.7,3.6-5.7,6.7-9.1l7.6-8.4l5.3-6.9c2.5-3.2,4.5-5.2,5.8-5.9c1.1-0.6,2.2-0.7,3.1-0.2c1,0.5,1.5,1.5,1.4,3
		c-0.1,1.8-0.9,5-2.4,9.8c-1.8,5.8-3.4,12.2-4.7,19.3c5.5-5,10.9-10.4,16.1-16.3l2.5-3.2c1-1.3,2-2.2,2.9-2.9c1.2-0.9,2.4-1,3.5-0.5
		c1.4,0.7,1.8,2.6,1.1,5.6c-0.2,1.1-0.9,3.1-2,6.2c-2.7,7.8-4.7,14.6-5.9,20.5l-0.9,4.8c-0.5,2.5-0.9,4.1-1.2,4.6
		c-0.4,0.7-0.9,1.1-1.7,1.3C394,262.4,393.3,262.3,392.7,262z"/>
	<path d="M437.5,251.9c-0.9-0.7-2-1.7-3.2-3l-3.1-3.2c-3.6,3.9-6.9,7.6-9.9,11.4c-0.8,1-1.7,2.2-2.9,3.7c-1.1,1.5-2.1,2.7-2.9,3.7
		c-1.1,1.3-2.1,2.5-3.1,3.5l6.7,5.3c0.6,0.5,0.9,1.1,1,1.8c0.1,0.7-0.1,1.4-0.6,2c-0.5,0.6-1.1,1-1.9,1.1c-0.7,0.1-1.4-0.1-2-0.6
		c-0.8-0.6-2-1.6-3.6-2.8c-1.6-1.2-2.8-2.2-3.6-2.8c-0.9-0.7-2.4-1.7-4.5-3c-2.1-1.2-3.6-2.2-4.5-3c-0.6-0.5-0.9-1.1-1-1.8
		s0.1-1.4,0.6-2c0.5-0.6,1.1-1,1.8-1.1c0.7-0.1,1.4,0.1,2,0.6c0.9,0.7,2.6,1.8,4.9,3.2c1.1-1,2.2-2.3,3.4-3.8c0.8-1,1.7-2.2,2.7-3.7
		c1-1.5,1.9-2.7,2.7-3.7c2.6-3.3,6.1-7.2,10.4-11.8l-2.8-2.1l-2.8-2.1c-0.6-0.5-1-1.1-1-1.8s0.1-1.4,0.6-2.1
		c1.1-1.3,2.3-1.5,3.7-0.6c1.2,0.8,3.4,2.5,6.6,5c2.8,2.3,6.1,5.4,9.8,9.4c1.1,1.2,1.1,2.5,0.1,3.8c-0.5,0.7-1.2,1-2,1
		C438.7,252.6,438.1,252.4,437.5,251.9z"/>
	<path d="M426.4,278c0.6-0.5,1.2-0.7,1.9-0.6c0.7,0.1,1.3,0.4,1.8,1c0.6,0.7,0.7,1.6,0.4,2.8c-0.4,1.6-0.6,2.8-0.5,3.7
		c0.2,1.8,1.3,3.8,3.3,6.1c1.8,2.1,4,3.7,6.5,4.7c3.2,1.3,5.8,1,7.9-0.8c1.7-1.5,2.2-3.7,1.5-6.5c-0.6-2.4-1.9-4.9-3.9-7.3
		c-1.8-2.2-2.9-4.5-3.4-6.7c-0.6-2.9,0.2-5.3,2.2-7c2.4-2.1,5.9-2.7,10.3-1.7c4.2,1,7.5,2.9,10,5.7c1.2,1.3,2.2,3,3.2,5.1
		c1.3,2.7,1.5,4.5,0.6,5.3c-1.2,1-2.3,1-3.4-0.3c-0.5-0.5-1.2-1.6-2.1-3.3c-0.9-1.6-1.7-2.8-2.3-3.5c-1.9-2.1-4-3.5-6.3-4.1
		c-2.4-0.6-4.3-0.3-5.8,1c-1.1,1-1.1,2.7,0.2,5.1c0.5,0.9,1.6,2.5,3.3,4.8c2.5,3.3,3.6,6.6,3.4,9.9c-0.2,3-1.4,5.5-3.7,7.5
		c-3.3,2.8-7.2,3.6-11.7,2.3c-4-1.1-7.4-3.4-10.4-6.9c-2.2-2.5-3.7-5.2-4.5-8.1C423.9,282.5,424.3,279.8,426.4,278z"/>
	<path d="M491.3,322.6c-0.7-1.2-1.6-3-2.8-5.5c-1.2-2.5-2.1-4.3-2.8-5.5l-1-1.7c-2.1,1.3-5.6,3.5-10.2,6.7
		c-4.4,2.9-7.8,5.1-10.3,6.6c-0.6,0.3-1.4,0.8-2.4,1.6c-1.1,0.7-1.9,1.3-2.4,1.6c-1.1,0.6-2.1,1-3.1,1.1c-1.3,0.2-2.2-0.2-2.7-1.2
		c-0.4-0.6-0.5-1.3-0.3-2.1s0.6-1.3,1.3-1.7c0.2-0.1,0.6-0.3,1.1-0.5c0.5-0.2,0.9-0.4,1.1-0.5c0.8-0.4,1.9-1.1,3.4-2.1
		c1.5-1,2.6-1.7,3.4-2.1c2.3-1.3,5.3-3.3,9.2-5.9c4.2-2.9,7.2-4.9,9.1-6l-1.2-2.1c-2-3.4-3.3-6.3-3.9-8.6c-0.4-1.5,0-2.5,1.2-3.2
		c0.6-0.4,1.3-0.5,2-0.4c0.8,0.2,1.4,0.6,1.8,1.4c0.3,0.6,0.9,1.9,1.7,4c0.7,1.7,1.3,3,1.9,4c0.5,0.9,1.4,2.4,2.5,4.3
		c1.1,1.9,2,3.3,2.5,4.3c0.7,1.2,1.6,3.1,2.8,5.5c1.2,2.5,2.1,4.3,2.8,5.5c0.4,0.7,0.5,1.4,0.3,2.1c-0.2,0.7-0.7,1.3-1.3,1.7
		c-0.7,0.4-1.4,0.5-2.1,0.3C492.2,323.7,491.7,323.3,491.3,322.6z"/>
	<path d="M466.3,359.7c-1.5-4.9-1.3-9.5,0.5-13.8c2-4.6,5.4-7.6,10.4-9.1c6-1.9,12-1.8,18,0.2c6.7,2.3,10.9,6.4,12.8,12.3
		c1.8,5.7,1.8,10.3,0.1,13.9c-1.8,3.7-5.5,6.5-11.3,8.3c-6,1.9-11.9,1.9-17.7,0.2C472.4,369.6,468.2,365.6,466.3,359.7z
		 M502.6,350.9c-1.3-4.2-4.5-7.2-9.7-8.8c-4.7-1.5-9.4-1.5-14.1-0.1c-3.3,1-5.7,3.1-7,6.2c-1.2,3-1.3,6.2-0.2,9.7
		c1.3,4.2,4.5,7,9.6,8.4c4.5,1.3,9.2,1.2,13.9-0.3c4.1-1.3,6.8-3.1,7.9-5.5C504,358.4,503.9,355.1,502.6,350.9z"/>
</g>
<g>
	<path d="M93.5,483.3c-0.2-0.5-0.4-1.6-0.8-3.2c-2.6,0.8-7.1,2.4-13.6,4.7c-0.7,0.2-1.3,0.2-2,0c-0.6-0.3-1.1-0.7-1.3-1.4
		c-0.2-0.7-0.2-1.3,0.1-1.9c0.3-0.6,0.8-1,1.5-1.3l7.5-2.7c2.5-0.9,6.1-2,10.7-3.4c5-1.5,8.6-2.5,10.8-3.3l3.5-1.3
		c1.7-0.6,2.9-1,3.8-1c1.6-0.2,2.6,0.4,2.9,1.8c0.4,0.5,0.8,1.2,1.2,2.2s0.9,2.2,1.5,3.7c1.1,3.1,1.1,6.4,0,9.9
		c-1.3,3.9-3.5,6.4-6.8,7.6c-4.2,1.5-8.2,1.2-11.8-1.1C97.3,490.3,95,487.3,93.5,483.3z M114.2,477.2c-0.3-0.7-0.5-1.4-0.8-2
		c-0.2-0.6-0.5-1.1-0.7-1.4l-4.7,1.7l-10.4,3.2l0.7,2.9c1,2.9,2.6,5,4.8,6.4c2.4,1.6,4.9,1.9,7.6,0.9c1.9-0.7,3.2-2.3,3.8-4.9
		C115.1,481.6,115,479.4,114.2,477.2z"/>
	<path d="M95.7,528.7c-2.8-4.9-3.5-9.3-2.1-13.4c1.1-3.2,3.8-6.4,7.9-9.4c1.9-1.4,5.8-3.8,11.7-7.2c2.2-1.3,4-2.2,5.4-2.9
		c1.5-0.7,2.6-1.2,3.2-1.3c1.4-0.3,2.4,0.1,2.9,1.1c0.8,1.4-0.1,2.9-2.7,4.5l-13.8,8c-9.5,5.5-12.4,11.5-8.5,18.2
		c3.6,6.3,13.4,4.8,29.4-4.4c0.6-0.3,1.4-0.8,2.3-1.3c0.9-0.6,1.6-0.9,1.9-1.1c1-0.6,1.9-0.9,2.9-1c1.2-0.1,2,0.3,2.5,1.1
		c0.9,1.6,0.3,3-1.9,4.2c-0.6,0.4-1.6,0.9-2.9,1.7c-1.3,0.8-2.3,1.3-2.9,1.7C112.9,537.6,101.1,538.1,95.7,528.7z"/>
	<path d="M141.8,576.6c-0.6,0.6-1.8,1.4-3.5,2.6c-1.6,1-2.9,0.9-4-0.3c-0.7-0.7-1-2.1-0.9-4c0.3-10.1,2.1-23.2,5.5-39.1l-4.7,4
		l-4.7,4.1c-1.1,1-2.8,2.5-5,4.6c-2.2,2.1-3.9,3.6-5,4.6c-3.6,3.3-6.1,4.2-7.3,2.8c-0.7-0.7-1-1.5-0.9-2.4c0.1-0.8,0.4-1.4,1-1.9
		c0.6-0.5,1.5-1.2,2.7-2.2c1.2-0.9,2.1-1.7,2.7-2.2c0.8-0.8,2.1-1.8,3.8-3.3c1.7-1.4,3-2.5,3.8-3.3c0.9-0.8,2.2-2,4-3.7
		c1.8-1.7,3.1-2.9,4-3.7c0.8-0.8,2-2,3.6-3.6c1.5-1.7,2.7-2.9,3.6-3.6c0.6-0.6,1.4-0.8,2.4-0.7c1,0.1,1.8,0.4,2.4,1.1
		c0.6,0.7,0.7,2.3,0,4.8c-2,7.9-3.5,14.6-4.4,20.3c-1.1,6.7-1.7,13.6-1.9,20.7c0.6-0.5,1.5-1.2,2.6-2.3l2.5-2.3
		c5.9-5.3,10.4-9.8,13.5-13.4c0.3-0.4,0.8-1.2,1.6-2.5c0.7-1.1,1.3-1.9,1.8-2.3c1.6-1.4,3-1.4,4.3,0c2.1,2.3-1.2,7.4-10,15.3
		c-1.5,1.3-3.8,3.3-6.8,6C145.5,573.3,143.3,575.3,141.8,576.6z"/>
	<path d="M169.8,606.6c-1.3-1-1.3-3.6,0.3-7.7c0.6-1.6,1.8-4.2,3.6-7.9c-1.6-0.9-3.9-2-6.7-3.2l-6.7-3.1c-2.1,1.4-5.4,3.3-9.9,5.6
		c-1.1,0.5-2,0.4-2.8-0.2c-0.6-0.4-1-1-1.1-1.8s0-1.5,0.5-2.1c0.5-0.7,3.6-2.6,9.2-5.6c0-0.6,0.2-1.1,0.6-1.6
		c0.9-1.2,2.1-1.4,3.8-0.7c4-1.9,8.7-4,14.2-6.2c7.5-3,11.7-4.2,12.6-3.6c1.2,0.8,1.4,2.2,0.6,4.1l-4,8.4l-7.9,17.6l-1.3,4.4
		c-0.4,1.5-0.8,2.4-1.1,2.8c-0.5,0.6-1.1,1-1.8,1.1C171.1,607.2,170.4,607,169.8,606.6z M180.4,575.8l-13.7,5.5
		c2.1,0.8,5.2,2.3,9.2,4.2L180.4,575.8z"/>
	<path d="M218,592.9c-1-0.5-2.3-1.3-3.8-2.2l-3.7-2.4c-2.7,4.5-5.1,9-7.2,13.3c-0.6,1.1-1.2,2.6-2,4.3s-1.4,3.1-2,4.3
		c-0.8,1.5-1.5,2.9-2.2,4.1l7.7,3.7c0.7,0.3,1.1,0.9,1.4,1.6c0.2,0.7,0.2,1.4-0.2,2.1c-0.4,0.7-0.9,1.2-1.6,1.5
		c-0.7,0.3-1.4,0.2-2.1-0.1c-0.9-0.4-2.3-1.1-4.1-2s-3.2-1.5-4.1-2c-1.1-0.5-2.8-1.2-5-1.9c-2.3-0.8-4-1.4-5.1-1.9
		c-0.7-0.3-1.1-0.9-1.4-1.6c-0.2-0.7-0.2-1.4,0.2-2.1c0.3-0.7,0.9-1.2,1.6-1.4c0.7-0.3,1.4-0.2,2.1,0.1c1.1,0.5,2.9,1.2,5.5,2.1
		c0.8-1.2,1.6-2.7,2.5-4.4c0.6-1.1,1.2-2.5,1.9-4.2c0.7-1.7,1.3-3.1,1.9-4.2c1.8-3.8,4.4-8.3,7.6-13.7l-3.2-1.5l-3.2-1.5
		c-0.7-0.3-1.2-0.9-1.4-1.6s-0.2-1.4,0.2-2.2c0.7-1.5,1.9-2,3.5-1.4c1.4,0.5,3.9,1.7,7.5,3.4c3.2,1.6,7.1,3.9,11.6,7
		c1.3,0.9,1.6,2.1,0.9,3.7c-0.4,0.8-1,1.2-1.7,1.4C219.3,593.3,218.6,593.2,218,592.9z"/>
	<path d="M253,632.9c-0.2,0.8-0.8,2.2-1.6,4.1c-0.8,1.7-2,2.3-3.5,1.9c-1-0.3-1.9-1.2-2.9-2.8c-5.2-8.7-10.7-20.7-16.3-35.9
		l-1.8,5.9l-1.7,5.9c-0.4,1.4-1,3.6-1.7,6.5c-0.7,2.9-1.3,5.1-1.7,6.6c-1.3,4.7-2.9,6.8-4.7,6.3c-1-0.3-1.6-0.8-2-1.6
		c-0.4-0.7-0.4-1.4-0.2-2.1c0.2-0.7,0.6-1.8,1.1-3.3c0.5-1.5,0.9-2.5,1.1-3.3c0.3-1.1,0.8-2.7,1.5-4.8c0.7-2.1,1.2-3.7,1.5-4.8
		c0.3-1.2,0.8-2.9,1.4-5.2c0.6-2.3,1.1-4.1,1.4-5.2c0.3-1.1,0.7-2.8,1.1-5c0.4-2.2,0.8-3.9,1.1-5c0.2-0.8,0.8-1.4,1.6-1.9
		c0.9-0.5,1.7-0.6,2.6-0.3c0.9,0.3,1.8,1.6,2.6,4c2.5,7.7,4.9,14.2,7.2,19.5c2.7,6.3,5.9,12.4,9.5,18.5c0.3-0.7,0.6-1.8,0.9-3.3
		l0.8-3.3c2.1-7.7,3.5-13.8,4.2-18.5c0.1-0.5,0.1-1.5,0.1-2.9c0-1.3,0.1-2.3,0.3-2.9c0.6-2,1.8-2.8,3.6-2.3c3,0.8,3,6.9-0.2,18.3
		c-0.5,1.9-1.4,4.8-2.5,8.7C254.4,628.1,253.6,631,253,632.9z"/>
	<path d="M291.7,605.7c-0.3,0-0.5-0.1-0.8-0.2c-3-1.1-5.9-1.8-8.7-2c-1.5-0.1-3.1-0.1-4.9,0s-3.7,0.4-5.8,0.8c0.1,1.2,0.1,2.1,0,2.8
		c-0.2,2.5-0.6,5.9-1.3,10.3l12-0.2c3.5-0.1,5.7-0.1,6.5,0c0.8,0.1,1.4,0.4,1.9,0.9c0.5,0.5,0.7,1.2,0.7,2.1c-0.1,1.6-1,2.5-2.7,2.6
		l-6.5,0.1l-12.6,0.2c-0.2,1.3-0.3,2.5-0.5,3.6s-0.2,2.2-0.3,3.2c-0.3,4-0.2,6.4,0.3,7.1c0.4,0.5,1.8,0.9,4.2,1.1
		c1.1,0.1,2.8,0.2,5.1,0.3c2.3,0.1,3.9,0.2,5.1,0.3c0.4,0,0.9,0,1.6-0.1c0.7-0.1,1.2-0.1,1.6-0.1c1.9,0.1,2.8,1.2,2.7,3
		c-0.1,1.5-1,2.4-2.5,2.6c-1.7,0.2-5.4,0.1-11.1-0.3c-5.6-0.4-9.1-1.5-10.6-3.1c-1.6-1.7-2.2-5.5-1.7-11.3c0.1-1.2,0.2-2.4,0.4-3.8
		c0.2-1.4,0.3-2.8,0.6-4.4c-0.2-0.4-0.2-0.9-0.2-1.4c0-0.6,0.3-1.2,0.6-1.6c0.8-5.2,1.2-9,1.4-11.5c0.1-0.7,0-1.7,0-3
		c-0.1-1.3-0.1-2.3,0-3c0.2-2.1,1.2-3.2,3-3c0.8,0.1,1.4,0.4,1.9,0.9c2.2-0.4,4.3-0.7,6.2-0.8c1.9-0.1,3.8-0.1,5.5,0
		c4.4,0.3,7.9,1.1,10.4,2.4c1.2,0.6,1.7,1.5,1.6,2.7c-0.1,0.7-0.3,1.3-0.9,1.9C293.2,605.5,292.5,605.7,291.7,605.7z"/>
	<path d="M339.1,632.1c0.1,0.9,0.1,2.3,0.1,4.4c-0.1,1.9-0.9,2.9-2.6,3.1c-1,0.1-2.2-0.4-3.8-1.5c-8.1-6.1-17.7-15.1-28.7-27.1
		l0.6,6.1l0.6,6.2c0.2,1.5,0.5,3.7,0.9,6.7c0.4,3,0.7,5.2,0.9,6.7c0.6,4.8-0.1,7.4-2,7.6c-1,0.1-1.8-0.1-2.5-0.7
		c-0.6-0.5-0.9-1.1-1-1.9c-0.1-0.8-0.2-1.9-0.2-3.4c-0.1-1.5-0.1-2.7-0.2-3.4c-0.1-1.1-0.3-2.8-0.5-5c-0.2-2.2-0.3-3.9-0.5-5
		c-0.1-1.2-0.4-3-0.7-5.4c-0.3-2.4-0.6-4.2-0.7-5.4c-0.1-1.1-0.4-2.8-0.9-5c-0.5-2.2-0.8-3.9-0.9-5c-0.1-0.8,0.2-1.6,0.8-2.4
		c0.6-0.8,1.4-1.2,2.3-1.3c1-0.1,2.3,0.8,3.9,2.7c5.3,6.2,9.9,11.3,14,15.4c4.9,4.8,10.1,9.3,15.8,13.5c0-0.8-0.2-1.9-0.4-3.4
		L333,625c-0.9-7.9-1.9-14.2-3.1-18.8c-0.1-0.5-0.5-1.4-1.1-2.8c-0.5-1.2-0.8-2.1-0.9-2.8c-0.2-2.1,0.6-3.2,2.5-3.5
		c3.1-0.4,5.4,5.3,6.7,17c0.2,2,0.5,5,0.9,9C338.5,627.1,338.8,630.1,339.1,632.1z"/>
	<path d="M386.4,580.5c0.1,0.8,0.4,1.9,1,3.2c0.2,0.5,0.6,1.2,1,2.2c0.5,1,0.8,1.7,1,2.2c0.7,1.7,1.7,4.2,2.8,7.6
		c1.1,3.4,2.1,6,2.8,7.6c0.6,1.3,1.5,3.1,2.8,5.6c1.3,2.4,2.2,4.3,2.8,5.6c0.3,0.7,0.3,1.4,0.1,2s-0.7,1.1-1.4,1.4
		c-0.7,0.3-1.3,0.3-2,0c-0.7-0.3-1.2-0.7-1.4-1.4c-0.6-1.3-1.5-3.1-2.8-5.6c-1.3-2.4-2.2-4.3-2.8-5.6c-0.5-1.2-1-2.5-1.5-3.7
		c-2.8,1.3-6.1,3.2-10,5.9l-9.6,6.6c0.7,1.5,1.4,3.7,2.3,6.6c0.9,2.9,1.7,5.1,2.3,6.6c0.3,0.7,0.3,1.4,0.1,2
		c-0.2,0.7-0.7,1.2-1.4,1.5c-0.7,0.3-1.4,0.3-2,0c-0.7-0.3-1.1-0.8-1.4-1.4c-0.8-1.8-1.8-4.5-3-8.1c-1.2-3.6-2.2-6.3-3-8.1
		c-0.4-0.9-1-2.3-1.9-4.1c-0.9-1.8-1.5-3.2-1.9-4.1c-0.6-1.3-1.4-3.3-2.3-6s-1.8-4.7-2.3-6c-0.3-0.7-0.3-1.4-0.1-2
		c0.3-0.7,0.7-1.1,1.4-1.4c0.7-0.3,1.4-0.3,2,0c0.7,0.3,1.1,0.7,1.4,1.4c0.6,1.3,1.4,3.4,2.3,6.1c1,2.7,1.8,4.8,2.3,6.1l2.9,6.2
		l9.8-6.7c3.9-2.7,7.3-4.6,10.2-6c-0.9-2.5-2.3-6.1-4.4-10.9c-0.6-1.3-0.9-2.6-1.1-4.1c-0.2-2,0.2-3.2,1.2-3.7
		c0.6-0.3,1.3-0.3,2-0.1c0.7,0.2,1.2,0.7,1.5,1.4C386.3,579.6,386.4,580,386.4,580.5z"/>
	<path d="M437.3,592.7c-1.4,1-3.8,0.1-7.3-2.7c-1.3-1.1-3.5-3-6.4-6c-1.4,1.3-3.1,3-5.1,5.3l-5,5.4c0.6,2.5,1.4,6.2,2.2,11.2
		c0.1,1.2-0.2,2-1,2.6c-0.6,0.4-1.3,0.6-2,0.5c-0.8-0.1-1.4-0.5-1.8-1.1c-0.5-0.7-1.3-4.2-2.4-10.5c-0.5-0.2-1-0.6-1.3-1.1
		c-0.8-1.2-0.7-2.5,0.5-3.8c-0.6-4.4-1-9.5-1.4-15.4c-0.5-8.1-0.3-12.4,0.6-13c1.2-0.8,2.5-0.6,4.1,0.7l6.7,6.5l14.2,13.1l3.7,2.6
		c1.3,0.9,2.1,1.5,2.3,1.9c0.5,0.6,0.6,1.3,0.4,2.1C438.2,591.7,437.9,592.3,437.3,592.7z M411.5,572.9l0.9,14.7
		c1.5-1.7,3.8-4.2,7-7.4L411.5,572.9z"/>
	<path d="M446.5,534.4c-0.9,1-2.4,2.4-4.5,4.3c-2,1.8-3.5,3.3-4.5,4.3l-1.3,1.4c1.8,1.7,5,4.3,9.3,7.9c4.1,3.3,7.1,6,9.2,8
		c0.5,0.4,1.2,1.1,2.2,1.9s1.8,1.4,2.2,1.9c0.9,0.9,1.5,1.7,1.9,2.6c0.5,1.2,0.4,2.2-0.3,2.9c-0.5,0.5-1.1,0.8-1.9,0.9
		s-1.4-0.2-2-0.7c-0.2-0.2-0.5-0.5-0.8-0.9c-0.3-0.4-0.6-0.8-0.8-0.9c-0.6-0.6-1.6-1.5-3-2.6c-1.4-1.1-2.4-2-3-2.6
		c-1.9-1.8-4.7-4.2-8.3-7.1c-4-3.2-6.8-5.5-8.4-7l-1.7,1.8c-2.7,2.9-5.1,4.9-7.1,6.2c-1.3,0.8-2.4,0.7-3.5-0.3
		c-0.5-0.5-0.8-1.1-0.9-1.9c-0.1-0.8,0.2-1.5,0.8-2.1c0.5-0.4,1.6-1.4,3.4-2.8c1.4-1.2,2.5-2.1,3.3-3c0.8-0.8,1.9-2,3.4-3.6
		s2.6-2.8,3.4-3.6c1-1,2.5-2.4,4.5-4.3c2-1.8,3.5-3.3,4.5-4.3c0.5-0.6,1.2-0.9,1.9-0.9c0.8,0,1.4,0.3,2,0.8c0.6,0.5,0.9,1.2,0.9,1.9
		C447.3,533.2,447.1,533.8,446.5,534.4z"/>
	<path d="M466.2,504.1c-0.7,1.1-1.9,2.8-3.7,5c-1.6,2.2-2.9,3.9-3.6,5l-1.1,1.6c2.1,1.3,5.7,3.3,10.6,6c4.6,2.5,8.1,4.6,10.6,6.2
		c0.5,0.3,1.4,0.8,2.5,1.4s2,1.1,2.5,1.4c1,0.7,1.8,1.4,2.3,2.2c0.7,1.1,0.8,2.1,0.2,3c-0.4,0.6-1,1-1.7,1.2
		c-0.7,0.2-1.4,0.1-2.1-0.3c-0.2-0.1-0.5-0.4-1-0.8c-0.4-0.4-0.7-0.6-1-0.8c-0.7-0.5-1.9-1.2-3.4-2c-1.6-0.9-2.7-1.6-3.5-2
		c-2.2-1.4-5.3-3.2-9.5-5.4c-4.5-2.4-7.7-4.2-9.6-5.3l-1.3,2.1c-2.2,3.3-4.1,5.8-5.8,7.4c-1.1,1-2.3,1.1-3.5,0.4
		c-0.6-0.4-1-1-1.3-1.7c-0.2-0.8-0.1-1.5,0.4-2.2c0.4-0.5,1.3-1.6,2.8-3.4c1.2-1.4,2.1-2.6,2.7-3.5c0.6-0.9,1.5-2.3,2.6-4.2
		c1.2-1.9,2-3.3,2.6-4.2c0.8-1.2,2-2.8,3.6-5s2.9-3.9,3.6-5c0.4-0.7,1-1.1,1.7-1.2c0.7-0.1,1.4,0,2.1,0.4c0.7,0.4,1.1,1,1.2,1.7
		S466.7,503.4,466.2,504.1z"/>
	<path d="M506.9,498.4c-2.1,5.2-5.2,8.5-9.2,9.9c-3.3,1.1-7.4,1-12.3-0.4c-2.2-0.6-6.5-2.2-12.9-4.8c-2.4-0.9-4.2-1.8-5.6-2.4
		c-1.5-0.7-2.5-1.3-3-1.7c-1.1-0.9-1.4-1.9-0.9-3c0.6-1.5,2.4-1.7,5.2-0.6l14.8,6c10.2,4.1,16.7,2.6,19.6-4.5
		c2.7-6.7-4.5-13.5-21.7-20.4c-0.6-0.3-1.5-0.6-2.5-1c-1-0.4-1.7-0.7-2-0.8c-1-0.4-1.9-1-2.5-1.7c-0.8-0.9-1-1.8-0.7-2.7
		c0.7-1.7,2.2-2.1,4.5-1.1c0.7,0.3,1.7,0.7,3.1,1.2c1.4,0.6,2.4,1,3.1,1.3C503.2,479.4,510.9,488.3,506.9,498.4z"/>
</g>
<circle style="fill:none;stroke:#000000;stroke-width:10;stroke-miterlimit:10;" cx="297.6" cy="420.9" r="247.6"/>
<g>
	<path d="M48.7,708.8c0.9-2.3,1.6-4.1,2.1-5.5c-0.4,0-1,0-1.7,0c-0.9,0-1.4,0-1.7,0c-0.5,0-1-0.2-1.3-0.5c-0.4-0.3-0.5-0.7-0.5-1.2
		c0-1,0.6-1.6,1.7-1.7c1,0,2.6-0.1,4.6-0.1l0.9-2.6c0.5-1.2,1.1-1.8,1.7-1.8c1.2,0,1.9,0.6,1.9,1.7c0,0.5-0.2,1.4-0.7,2.7h5
		c0.2-1,0.6-2.1,1-3.4c0.3-0.9,0.9-1.4,1.7-1.4c0.5,0,0.9,0.2,1.3,0.5s0.6,0.7,0.6,1.2c0,0.3-0.3,1.3-0.8,3.1c0.6,0,1,0,1.3,0
		c1.7,0,2.5,0.6,2.5,1.8c0,0.9-0.4,1.4-1.2,1.7c-0.4,0.1-1.2,0.2-2.3,0.2c-0.1,0-0.3,0-0.6,0h-0.6c-0.4,1.2-1,3-1.8,5.5h2
		c1.9,0,2.9,0.6,2.9,1.9c0,0.5-0.2,0.9-0.5,1.2s-0.8,0.4-1.3,0.4c-0.2,0-0.9,0-2.1,0c-0.8,0-1.5,0-2.1,0c-0.3,0.8-0.6,2.2-1.1,4
		c-0.3,1.1-1,1.7-2.2,1.7c-1,0-1.6-0.5-1.6-1.5c0-0.5,0.4-1.9,1.1-4.2h-5.8c-0.8,1.9-1.4,3.5-1.8,4.6c-0.2,0.7-0.8,1.1-1.7,1.1
		c-0.5,0-0.9-0.2-1.3-0.5c-0.4-0.3-0.6-0.7-0.6-1.2c0-0.1,0.5-1.5,1.5-4h-1.6c-0.5,0-1-0.2-1.3-0.7c-0.3-0.4-0.5-0.8-0.5-1.3
		c0-1,0.5-1.5,1.6-1.6C45.6,708.8,46.7,708.8,48.7,708.8z M54.6,703.3l-2.1,5.5H58l1.8-5.5H54.6z"/>
	<path d="M74.5,709.8c-0.2,0-0.6,0-1.2-0.1c-0.1,1.3-0.1,3.5-0.1,6.5c0,0.5-0.2,0.9-0.5,1.3c-0.3,0.4-0.8,0.5-1.3,0.5
		c-0.5,0-1-0.2-1.3-0.5s-0.5-0.8-0.5-1.3v-3.9c0-1.5,0.1-3.6,0.3-6.5c0.2-2.9,0.3-5.1,0.3-6.5c0-2.5,0.7-3.6,2.1-3.5
		c0.3-0.1,0.8-0.1,1.3-0.2c0.6,0,1.3-0.1,2.1-0.1c1.8,0,3.6,0.6,5.2,1.8c1.8,1.3,2.7,3,2.7,4.9c0,2.4-1,4.3-2.9,5.8
		C78.9,709.1,76.9,709.8,74.5,709.8z M75.3,699.1c-0.3,0-0.6,0-0.8,0c-0.2,0-0.4,0-0.6,0c0,0.4,0,1.1,0,2c0,1-0.1,2.7-0.3,4.9
		c0.5,0.1,0.8,0.1,1,0.1c1.5,0,2.7-0.3,3.7-1c1-0.7,1.6-1.7,1.6-3c0-0.8-0.5-1.5-1.5-2.1C77.4,699.4,76.4,699.1,75.3,699.1z"/>
	<path d="M95.3,718.5c-2.8,0-5.2-0.8-7.1-2.4c-2.1-1.7-3.1-3.9-3.1-6.7c0-3.2,1-6.1,3-8.8c2.3-3,5.1-4.5,8.5-4.5
		c3.3,0,5.8,0.8,7.4,2.3c1.6,1.5,2.5,3.8,2.5,6.8c0,3.2-0.9,6.1-2.8,8.7C101.5,717,98.7,718.5,95.3,718.5z M96.5,700.1
		c-2.1,0-3.9,1-5.4,3.1c-1.4,1.9-2.1,4-2.1,6.3c0,1.6,0.6,2.8,1.8,3.8c1.2,0.9,2.6,1.4,4.4,1.4c2.1,0,3.8-1,5.2-3.1
		c1.3-1.9,1.9-4,1.9-6.3c0-2-0.4-3.4-1.3-4.1C100.2,700.4,98.7,700.1,96.5,700.1z M94.4,694.5c-1.8,0-2.6-0.7-2.6-2
		c0-0.5,0.3-0.9,0.9-1.3c0.5-0.4,1.1-0.6,1.6-0.6c1.8,0,2.7,0.7,2.7,2c0,0.5-0.3,0.9-1,1.3C95.4,694.3,94.9,694.5,94.4,694.5z
		 M100.5,694.5c-0.6,0-1.1-0.2-1.6-0.5c-0.6-0.4-0.9-0.8-0.9-1.4c0-1.3,1-2,2.9-2c0.5,0,1,0.2,1.5,0.5c0.6,0.4,0.9,0.8,0.9,1.4
		c0,0.6-0.3,1.1-1,1.5C101.9,694.3,101.3,694.5,100.5,694.5z"/>
	<path d="M128.5,698c-0.2,0.7-0.3,1.3-0.3,1.8c0,0.3,0,0.7-0.1,1.2c-0.1,0.6-0.1,1-0.1,1.2c0,0.9,0,2.2-0.1,4
		c-0.1,1.8-0.1,3.1-0.1,4c0,0.7,0.1,1.7,0.2,3.1c0.1,1.4,0.2,2.4,0.2,3.1c0,0.5-0.2,1-0.6,1.3c-0.4,0.4-0.8,0.5-1.4,0.5
		c-0.6,0-1-0.2-1.4-0.5s-0.6-0.8-0.6-1.3c0-0.7,0-1.7-0.1-3.1c-0.1-1.4-0.1-2.4-0.1-3.1c0-0.5,0-1,0-1.4c-1.5,0.1-3.3,0.3-5.5,0.7
		c-1.8,0.3-3.6,0.7-5.4,1c0,0.6-0.1,1.6-0.2,3c-0.1,1.2-0.1,2.2-0.1,3c0,0.5-0.2,0.9-0.6,1.2c-0.4,0.3-0.8,0.5-1.4,0.5
		s-1-0.2-1.4-0.5s-0.6-0.8-0.6-1.3c0-0.9,0.1-2.3,0.2-4.2s0.2-3.2,0.2-4.2c0-1.2,0-3,0.1-5.3c0.1-2.4,0.1-4.1,0.1-5.3
		c0-0.5,0.2-0.9,0.6-1.3s0.8-0.5,1.4-0.5c0.5,0,1,0.2,1.4,0.5s0.6,0.8,0.6,1.3c0,0.7,0,1.8-0.1,3.2s-0.1,2.5-0.1,3.2
		c0,0.2,0,0.7-0.1,1.4c-0.1,0.6-0.1,1.1-0.1,1.4l5.4-1c2.1-0.4,4-0.6,5.5-0.7c0-0.6,0.1-2.4,0.2-5.1c0-0.7,0.2-1.6,0.7-2.5
		c0.5-1.2,1.1-1.8,1.8-1.8c0.5,0,0.9,0.2,1.3,0.5c0.4,0.4,0.6,0.8,0.6,1.3C128.5,697.7,128.5,697.8,128.5,698z"/>
	<path d="M142.7,700.9c-0.5,0-1.7-0.1-3.7-0.4c-0.1,1.7-0.2,4-0.2,6.9l0,6.4c1.3,0,2.5,0,3.8,0c0.6,0,1,0.2,1.4,0.6s0.6,0.8,0.6,1.4
		s-0.2,1-0.6,1.4c-0.4,0.4-0.9,0.6-1.4,0.6c-0.5,0-1.3,0-2.4,0s-1.9,0-2.4,0c-0.6,0-1.6,0.1-2.9,0.2c-1.3,0.2-2.2,0.2-2.9,0.2
		c-0.6,0-1.1-0.2-1.4-0.6c-0.4-0.4-0.6-0.8-0.6-1.4c0-0.5,0.2-1,0.6-1.4c0.4-0.4,0.9-0.6,1.5-0.6c0.7,0,1.6-0.1,2.7-0.2
		c0-1.1,0-3.2,0-6.4c0-2.6,0.1-5,0.3-7.3l-3.1,0.1c-0.6,0-1-0.2-1.4-0.6c-0.4-0.4-0.6-0.8-0.6-1.4c0-0.6,0.2-1,0.5-1.4
		c0.3-0.3,0.8-0.5,1.2-0.6c0.8-0.1,2.2-0.1,4.2-0.1c1.8,0,4.1,0.2,6.9,0.6c1.1,0.2,1.7,0.8,1.7,2c0,0.6-0.2,1.1-0.7,1.4
		C143.6,700.8,143.2,700.9,142.7,700.9z"/>
	<path d="M167.7,714.2c0,0.5-0.1,1.2-0.2,2.2c-0.2,1.2-0.9,1.8-2.1,1.8c-0.7,0-1.4-0.4-2.2-1.1c-3.6-3.3-7.7-7.9-12.3-13.8
		c-0.1,2.5-0.1,4-0.1,4.5c0,0.7,0,1.9,0,3.4c0,1.5,0,2.6,0,3.4c0,2.8-0.7,4.2-2,4.2c-0.7,0-1.2-0.2-1.7-0.6
		c-0.4-0.4-0.6-0.8-0.6-1.4c0-0.4,0-0.9,0.1-1.7c0.1-0.8,0.1-1.3,0.1-1.7c0-0.6,0-1.4,0.1-2.5c0-1.1,0.1-1.9,0.1-2.5
		c0-0.6,0-1.5,0-2.7s0-2.1,0-2.7c0-0.6-0.1-1.4-0.2-2.5c-0.1-1.1-0.2-2-0.2-2.5c0-0.6,0.2-1.1,0.7-1.5c0.5-0.4,1-0.7,1.7-0.7
		c0.7,0,1.5,0.6,2.3,1.8c4.3,6.1,8.5,11.1,12.7,14.9c0-0.3,0-1,0-2.2c0-4.6,0-7.8-0.1-9.4c0-0.3-0.1-0.8-0.2-1.5
		c-0.1-0.7-0.1-1.2-0.1-1.6c0-1.3,0.7-2,2.1-2c1.5,0,2.3,2.4,2.3,7.1c0,0.1,0,0.8,0,2.2C167.7,710,167.7,713,167.7,714.2z"/>
	<path d="M187.1,718.1c-0.7,0-1.5-0.9-2.2-2.6c-0.5-1.1-0.9-2.4-1.3-3.8c-0.7,0.1-1.8,0.2-3.4,0.3c-1.5,0.1-2.6,0.2-3.4,0.4
		c-0.4,1-1.2,2.6-2.3,4.7c-0.4,0.7-1,1-1.7,1c-0.5,0-1-0.2-1.4-0.5c-0.4-0.4-0.6-0.8-0.6-1.4c0-0.5,0.7-2.1,2.1-4.9
		c-0.1-0.3-0.2-0.6-0.2-0.8c0-0.5,0.5-0.8,1.4-1.1c1.3-2.3,2.8-4.7,4.5-7.2c2.4-3.6,3.8-5.4,4.4-5.4c1,0,1.7,0.6,2.1,1.9
		c0.2,1,0.5,2.5,0.9,4.5c0.6,2.7,1.3,5.8,2.1,9.3c0.1,0.3,0.3,0.9,0.7,1.9c0.3,0.8,0.5,1.4,0.5,1.8c0,0.5-0.2,1-0.6,1.4
		C188.1,717.9,187.6,718.1,187.1,718.1z M180,694.8c-1.8,0-2.6-0.7-2.6-2c0-0.5,0.3-0.9,0.9-1.3c0.5-0.4,1.1-0.6,1.6-0.6
		c1.8,0,2.7,0.7,2.7,2c0,0.5-0.3,0.9-1,1.3C181,694.7,180.5,694.8,180,694.8z M181.8,703.6c-0.7,1.3-1.7,3-3,5.2
		c0.4-0.1,1.1-0.2,2-0.2c1.1-0.1,1.7-0.1,2-0.2C182.6,707.1,182.2,705.5,181.8,703.6z M186.1,694.8c-0.6,0-1.1-0.2-1.6-0.5
		c-0.6-0.4-0.9-0.8-0.9-1.4c0-1.3,1-2,2.9-2c0.5,0,1,0.2,1.5,0.5c0.6,0.4,0.9,0.8,0.9,1.4c0,0.6-0.3,1.1-1,1.5
		C187.5,694.7,186.9,694.8,186.1,694.8z"/>
	<path d="M208.3,718.1c-0.7,0-1.5-0.9-2.2-2.6c-0.5-1.1-0.9-2.4-1.3-3.8c-0.7,0.1-1.8,0.2-3.4,0.3c-1.5,0.1-2.6,0.2-3.4,0.4
		c-0.4,1-1.2,2.6-2.3,4.7c-0.4,0.7-1,1-1.7,1c-0.5,0-1-0.2-1.4-0.5c-0.4-0.4-0.6-0.8-0.6-1.4c0-0.5,0.7-2.1,2.1-4.9
		c-0.1-0.3-0.2-0.6-0.2-0.8c0-0.5,0.5-0.8,1.4-1.1c1.3-2.3,2.8-4.7,4.5-7.2c2.4-3.6,3.8-5.4,4.4-5.4c1,0,1.7,0.6,2.1,1.9
		c0.2,1,0.5,2.5,0.9,4.5c0.6,2.7,1.3,5.8,2.1,9.3c0.1,0.3,0.3,0.9,0.7,1.9c0.3,0.8,0.5,1.4,0.5,1.8c0,0.5-0.2,1-0.6,1.4
		C209.3,717.9,208.8,718.1,208.3,718.1z M201.2,694.8c-1.8,0-2.6-0.7-2.6-2c0-0.5,0.3-0.9,0.9-1.3c0.5-0.4,1.1-0.6,1.6-0.6
		c1.8,0,2.7,0.7,2.7,2c0,0.5-0.3,0.9-1,1.3C202.2,694.7,201.7,694.8,201.2,694.8z M203,703.6c-0.7,1.3-1.7,3-3,5.2
		c0.4-0.1,1.1-0.2,2-0.2c1.1-0.1,1.7-0.1,2-0.2C203.7,707.1,203.4,705.5,203,703.6z M207.3,694.8c-0.6,0-1.1-0.2-1.6-0.5
		c-0.6-0.4-0.9-0.8-0.9-1.4c0-1.3,1-2,2.9-2c0.5,0,1,0.2,1.5,0.5c0.6,0.4,0.9,0.8,0.9,1.4c0,0.6-0.3,1.1-1,1.5
		C208.7,694.7,208,694.8,207.3,694.8z"/>
	<path d="M228.2,708.8c0.9-2.3,1.6-4.1,2.1-5.5c-0.4,0-1,0-1.7,0c-0.9,0-1.4,0-1.7,0c-0.5,0-1-0.2-1.3-0.5c-0.4-0.3-0.5-0.7-0.5-1.2
		c0-1,0.6-1.6,1.7-1.7c1,0,2.6-0.1,4.6-0.1l0.9-2.6c0.5-1.2,1.1-1.8,1.7-1.8c1.2,0,1.9,0.6,1.9,1.7c0,0.5-0.2,1.4-0.7,2.7h5
		c0.2-1,0.6-2.1,1-3.4c0.3-0.9,0.9-1.4,1.7-1.4c0.5,0,0.9,0.2,1.3,0.5s0.6,0.7,0.6,1.2c0,0.3-0.3,1.3-0.8,3.1c0.6,0,1,0,1.3,0
		c1.7,0,2.5,0.6,2.5,1.8c0,0.9-0.4,1.4-1.2,1.7c-0.4,0.1-1.2,0.2-2.3,0.2c-0.1,0-0.3,0-0.6,0h-0.6c-0.4,1.2-1,3-1.8,5.5h2
		c1.9,0,2.9,0.6,2.9,1.9c0,0.5-0.2,0.9-0.5,1.2s-0.8,0.4-1.3,0.4c-0.2,0-0.9,0-2.1,0c-0.8,0-1.5,0-2.1,0c-0.3,0.8-0.6,2.2-1.1,4
		c-0.3,1.1-1,1.7-2.2,1.7c-1,0-1.6-0.5-1.6-1.5c0-0.5,0.4-1.9,1.1-4.2h-5.8c-0.8,1.9-1.4,3.5-1.8,4.6c-0.2,0.7-0.8,1.1-1.7,1.1
		c-0.5,0-0.9-0.2-1.3-0.5c-0.4-0.3-0.6-0.7-0.6-1.2c0-0.1,0.5-1.5,1.5-4h-1.6c-0.5,0-1-0.2-1.3-0.7c-0.3-0.4-0.5-0.8-0.5-1.3
		c0-1,0.5-1.5,1.6-1.6C225.1,708.8,226.2,708.8,228.2,708.8z M234.1,703.3l-2.1,5.5h5.4l1.8-5.5H234.1z"/>
	<path d="M261.4,700.9c-0.5,0-1.7-0.1-3.7-0.4c-0.1,1.7-0.2,4-0.2,6.9l0,6.4c1.3,0,2.5,0,3.8,0c0.6,0,1,0.2,1.4,0.6s0.6,0.8,0.6,1.4
		s-0.2,1-0.6,1.4c-0.4,0.4-0.9,0.6-1.4,0.6c-0.5,0-1.3,0-2.4,0s-1.9,0-2.4,0c-0.6,0-1.6,0.1-2.9,0.2c-1.3,0.2-2.2,0.2-2.9,0.2
		c-0.6,0-1.1-0.2-1.4-0.6c-0.4-0.4-0.6-0.8-0.6-1.4c0-0.5,0.2-1,0.6-1.4c0.4-0.4,0.9-0.6,1.5-0.6c0.7,0,1.6-0.1,2.7-0.2
		c0-1.1,0-3.2,0-6.4c0-2.6,0.1-5,0.3-7.3l-3.1,0.1c-0.6,0-1-0.2-1.4-0.6c-0.4-0.4-0.6-0.8-0.6-1.4c0-0.6,0.2-1,0.5-1.4
		c0.3-0.3,0.8-0.5,1.2-0.6c0.8-0.1,2.2-0.1,4.2-0.1c1.8,0,4.1,0.2,6.9,0.6c1.1,0.2,1.7,0.8,1.7,2c0,0.6-0.2,1.1-0.7,1.4
		C262.3,700.8,261.9,700.9,261.4,700.9z"/>
	<path d="M275.2,718.5c-2.8,0-5.2-0.8-7.1-2.4c-2.1-1.7-3.1-3.9-3.1-6.7c0-3.2,1-6.1,3-8.8c2.3-3,5.1-4.5,8.5-4.5
		c3.3,0,5.8,0.8,7.4,2.3c1.6,1.5,2.5,3.8,2.5,6.8c0,3.2-0.9,6.1-2.8,8.7C281.4,717,278.6,718.5,275.2,718.5z M276.4,700.1
		c-2.1,0-3.9,1-5.4,3.1c-1.4,1.9-2.1,4-2.1,6.3c0,1.6,0.6,2.8,1.8,3.8c1.2,0.9,2.6,1.4,4.4,1.4c2.1,0,3.8-1,5.2-3.1
		c1.3-1.9,1.9-4,1.9-6.3c0-2-0.4-3.4-1.3-4.1C280.1,700.4,278.6,700.1,276.4,700.1z"/>
	<path d="M305.5,700.7c-0.7,0-1.9-0.1-3.4-0.2c-1.5-0.1-2.6-0.2-3.4-0.1c0,1.1,0.2,3,0.4,5.7c0.2,2.4,0.3,4.4,0.3,5.8
		c0,0.3,0,0.8,0.1,1.4c0.1,0.6,0.1,1.1,0.1,1.4c0,0.7-0.2,1.3-0.5,1.9c-0.4,0.7-0.9,1.1-1.7,1.1c-0.5,0-1-0.2-1.4-0.5
		c-0.4-0.4-0.7-0.8-0.7-1.4c0-0.1,0-0.3,0.1-0.6s0.1-0.5,0.1-0.6c0-0.4,0-1.1-0.1-2c-0.1-0.9-0.1-1.5-0.1-2c0-1.3-0.1-3-0.3-5.1
		c-0.2-2.5-0.4-4.2-0.4-5.1h-0.7c-2.1,0-3.8-0.2-5-0.5c-1-0.3-1.6-0.9-1.6-1.9c0-0.5,0.2-0.9,0.5-1.3c0.4-0.5,0.9-0.7,1.6-0.6
		c0.3,0,1.1,0.1,2.2,0.2c0.9,0.1,1.7,0.2,2.3,0.2s1.4,0,2.6,0s2,0,2.6,0c0.7,0,1.8,0,3.2,0.1c1.4,0.1,2.5,0.1,3.2,0.1
		c0.6,0,1,0.2,1.4,0.6s0.6,0.8,0.6,1.4s-0.2,1-0.6,1.4S306.1,700.7,305.5,700.7z"/>
	<path d="M324.3,708.8c0.9-2.3,1.6-4.1,2.1-5.5c-0.4,0-1,0-1.7,0c-0.9,0-1.4,0-1.7,0c-0.5,0-1-0.2-1.3-0.5c-0.4-0.3-0.5-0.7-0.5-1.2
		c0-1,0.6-1.6,1.7-1.7c1,0,2.6-0.1,4.6-0.1l0.9-2.6c0.5-1.2,1.1-1.8,1.7-1.8c1.2,0,1.9,0.6,1.9,1.7c0,0.5-0.2,1.4-0.7,2.7h5
		c0.2-1,0.6-2.1,1-3.4c0.3-0.9,0.9-1.4,1.7-1.4c0.5,0,0.9,0.2,1.3,0.5s0.6,0.7,0.6,1.2c0,0.3-0.3,1.3-0.8,3.1c0.6,0,1,0,1.3,0
		c1.7,0,2.5,0.6,2.5,1.8c0,0.9-0.4,1.4-1.2,1.7c-0.4,0.1-1.2,0.2-2.3,0.2c-0.1,0-0.3,0-0.6,0h-0.6c-0.4,1.2-1,3-1.8,5.5h2
		c1.9,0,2.9,0.6,2.9,1.9c0,0.5-0.2,0.9-0.5,1.2s-0.8,0.4-1.3,0.4c-0.2,0-0.9,0-2.1,0c-0.8,0-1.5,0-2.1,0c-0.3,0.8-0.6,2.2-1.1,4
		c-0.3,1.1-1,1.7-2.2,1.7c-1,0-1.6-0.5-1.6-1.5c0-0.5,0.4-1.9,1.1-4.2h-5.8c-0.8,1.9-1.4,3.5-1.8,4.6c-0.2,0.7-0.8,1.1-1.7,1.1
		c-0.5,0-0.9-0.2-1.3-0.5s-0.6-0.7-0.6-1.2c0-0.1,0.5-1.5,1.5-4h-1.6c-0.5,0-1-0.2-1.3-0.7c-0.3-0.4-0.5-0.8-0.5-1.3
		c0-1,0.5-1.5,1.6-1.6C321.2,708.8,322.2,708.8,324.3,708.8z M330.2,703.3l-2.1,5.5h5.4l1.8-5.5H330.2z"/>
	<path d="M357.5,700.9c-0.5,0-1.7-0.1-3.7-0.4c-0.1,1.7-0.2,4-0.2,6.9l0,6.4c1.3,0,2.5,0,3.8,0c0.6,0,1,0.2,1.4,0.6
		c0.4,0.4,0.6,0.8,0.6,1.4s-0.2,1-0.6,1.4c-0.4,0.4-0.9,0.6-1.4,0.6c-0.5,0-1.3,0-2.4,0s-1.9,0-2.4,0c-0.6,0-1.6,0.1-2.9,0.2
		s-2.2,0.2-2.9,0.2c-0.6,0-1.1-0.2-1.4-0.6c-0.4-0.4-0.6-0.8-0.6-1.4c0-0.5,0.2-1,0.6-1.4s0.9-0.6,1.5-0.6c0.7,0,1.6-0.1,2.7-0.2
		c0-1.1,0-3.2,0-6.4c0-2.6,0.1-5,0.3-7.3l-3.1,0.1c-0.6,0-1-0.2-1.4-0.6c-0.4-0.4-0.6-0.8-0.6-1.4c0-0.6,0.2-1,0.5-1.4
		c0.3-0.3,0.8-0.5,1.2-0.6c0.8-0.1,2.2-0.1,4.2-0.1c1.8,0,4.1,0.2,6.9,0.6c1.1,0.2,1.7,0.8,1.7,2c0,0.6-0.2,1.1-0.7,1.4
		C358.4,700.8,358,700.9,357.5,700.9z"/>
	<path d="M382.5,714.2c0,0.5-0.1,1.2-0.2,2.2c-0.2,1.2-0.9,1.8-2.1,1.8c-0.7,0-1.4-0.4-2.2-1.1c-3.6-3.3-7.7-7.9-12.3-13.8
		c-0.1,2.5-0.1,4-0.1,4.5c0,0.7,0,1.9,0,3.4s0,2.6,0,3.4c0,2.8-0.7,4.2-2,4.2c-0.7,0-1.2-0.2-1.7-0.6c-0.4-0.4-0.6-0.8-0.6-1.4
		c0-0.4,0-0.9,0.1-1.7s0.1-1.3,0.1-1.7c0-0.6,0-1.4,0.1-2.5c0-1.1,0.1-1.9,0.1-2.5c0-0.6,0-1.5,0-2.7s0-2.1,0-2.7
		c0-0.6-0.1-1.4-0.2-2.5c-0.1-1.1-0.2-2-0.2-2.5c0-0.6,0.2-1.1,0.7-1.5c0.5-0.4,1-0.7,1.7-0.7c0.7,0,1.5,0.6,2.3,1.8
		c4.3,6.1,8.5,11.1,12.7,14.9c0-0.3,0-1,0-2.2c0-4.6,0-7.8-0.1-9.4c0-0.3-0.1-0.8-0.2-1.5c-0.1-0.7-0.1-1.2-0.1-1.6
		c0-1.3,0.7-2,2.1-2c1.5,0,2.3,2.4,2.3,7.1c0,0.1,0,0.8,0,2.2C382.5,710,382.5,713,382.5,714.2z"/>
	<path d="M406,714.2c0,0.5-0.1,1.2-0.2,2.2c-0.2,1.2-0.9,1.8-2.1,1.8c-0.7,0-1.4-0.4-2.2-1.1c-3.6-3.3-7.7-7.9-12.3-13.8
		c-0.1,2.5-0.1,4-0.1,4.5c0,0.7,0,1.9,0,3.4s0,2.6,0,3.4c0,2.8-0.7,4.2-2,4.2c-0.7,0-1.2-0.2-1.7-0.6c-0.4-0.4-0.6-0.8-0.6-1.4
		c0-0.4,0-0.9,0.1-1.7s0.1-1.3,0.1-1.7c0-0.6,0-1.4,0.1-2.5c0-1.1,0.1-1.9,0.1-2.5c0-0.6,0-1.5,0-2.7s0-2.1,0-2.7
		c0-0.6-0.1-1.4-0.2-2.5c-0.1-1.1-0.2-2-0.2-2.5c0-0.6,0.2-1.1,0.7-1.5c0.5-0.4,1-0.7,1.7-0.7c0.7,0,1.5,0.6,2.3,1.8
		c4.3,6.1,8.5,11.1,12.7,14.9c0-0.3,0-1,0-2.2c0-4.6,0-7.8-0.1-9.4c0-0.3-0.1-0.8-0.2-1.5c-0.1-0.7-0.1-1.2-0.1-1.6
		c0-1.3,0.7-2,2.1-2c1.5,0,2.3,2.4,2.3,7.1c0,0.1,0,0.8,0,2.2C406.1,710,406,713,406,714.2z"/>
	<path d="M418.3,718.5c-2.8,0-5.2-0.8-7.1-2.4c-2.1-1.7-3.1-3.9-3.1-6.7c0-3.2,1-6.1,3-8.8c2.3-3,5.1-4.5,8.5-4.5
		c3.3,0,5.8,0.8,7.4,2.3c1.6,1.5,2.5,3.8,2.5,6.8c0,3.2-0.9,6.1-2.8,8.7C424.5,717,421.8,718.5,418.3,718.5z M419.6,700.1
		c-2.1,0-3.9,1-5.4,3.1c-1.4,1.9-2.1,4-2.1,6.3c0,1.6,0.6,2.8,1.8,3.8c1.2,0.9,2.6,1.4,4.4,1.4c2.1,0,3.8-1,5.2-3.1
		c1.3-1.9,1.9-4,1.9-6.3c0-2-0.4-3.4-1.3-4.1C423.3,700.4,421.7,700.1,419.6,700.1z"/>
	<path d="M439.3,711.7c1.4-3.6,2.5-6.4,3.3-8.6c0.4-1.1,0.8-2.2,1.2-3.4c0.6-1.3,1.2-2.4,1.8-3.1c0.4-0.5,0.9-0.7,1.5-0.7
		c0.5,0,1,0.2,1.4,0.6c0.4,0.4,0.6,0.8,0.6,1.4c0,0.4-0.1,0.8-0.4,1.1c-0.5,0.7-1,1.6-1.4,2.7c0,0-0.4,1-1,2.8
		c-0.8,2.2-2.1,5.4-3.8,9.8c-0.4,1.1-1,2.3-1.6,3.4c-0.4,0.7-1,1.1-1.8,1.1c-1,0-1.7-0.5-2.1-1.4c-1.2-2.7-2.4-6.7-3.8-11.9
		c-0.4-1.3-0.8-2.5-1.2-3.8c-0.5-1.8-0.8-3-0.8-3.7c0-0.6,0.2-1,0.6-1.4c0.4-0.3,0.9-0.5,1.4-0.5c0.9,0,1.5,0.5,1.9,1.4
		c0.2,0.8,0.4,1.6,0.6,2.4c0.3,1,0.8,2.5,1.3,4.6C437.9,707.3,438.6,709.7,439.3,711.7z"/>
	<path d="M467.6,718.1c-0.7,0-1.5-0.9-2.2-2.6c-0.5-1.1-0.9-2.4-1.3-3.8c-0.7,0.1-1.8,0.2-3.4,0.3c-1.5,0.1-2.6,0.2-3.4,0.4
		c-0.4,1-1.2,2.6-2.3,4.7c-0.4,0.7-1,1-1.7,1c-0.5,0-1-0.2-1.4-0.5s-0.6-0.8-0.6-1.4c0-0.5,0.7-2.1,2.1-4.9
		c-0.1-0.3-0.2-0.6-0.2-0.8c0-0.5,0.5-0.8,1.4-1.1c1.3-2.3,2.8-4.7,4.5-7.2c2.4-3.6,3.8-5.4,4.4-5.4c1,0,1.7,0.6,2.1,1.9
		c0.2,1,0.5,2.5,0.9,4.5c0.6,2.7,1.3,5.8,2.1,9.3c0.1,0.3,0.3,0.9,0.7,1.9c0.3,0.8,0.5,1.4,0.5,1.8c0,0.5-0.2,1-0.6,1.4
		C468.5,717.9,468.1,718.1,467.6,718.1z M462.3,703.6c-0.7,1.3-1.7,3-3,5.2c0.4-0.1,1.1-0.2,2-0.2c1.1-0.1,1.7-0.1,2-0.2
		C463,707.1,462.7,705.5,462.3,703.6z"/>
	<path d="M488.7,718.1c-0.7,0-1.5-0.9-2.2-2.6c-0.5-1.1-0.9-2.4-1.3-3.8c-0.7,0.1-1.8,0.2-3.4,0.3c-1.5,0.1-2.6,0.2-3.4,0.4
		c-0.4,1-1.2,2.6-2.3,4.7c-0.4,0.7-1,1-1.7,1c-0.5,0-1-0.2-1.4-0.5s-0.6-0.8-0.6-1.4c0-0.5,0.7-2.1,2.1-4.9
		c-0.1-0.3-0.2-0.6-0.2-0.8c0-0.5,0.5-0.8,1.4-1.1c1.3-2.3,2.8-4.7,4.5-7.2c2.4-3.6,3.8-5.4,4.4-5.4c1,0,1.7,0.6,2.1,1.9
		c0.2,1,0.5,2.5,0.9,4.5c0.6,2.7,1.3,5.8,2.1,9.3c0.1,0.3,0.3,0.9,0.7,1.9c0.3,0.8,0.5,1.4,0.5,1.8c0,0.5-0.2,1-0.6,1.4
		C489.7,717.9,489.3,718.1,488.7,718.1z M483.5,703.6c-0.7,1.3-1.7,3-3,5.2c0.4-0.1,1.1-0.2,2-0.2c1.1-0.1,1.7-0.1,2-0.2
		C484.2,707.1,483.9,705.5,483.5,703.6z"/>
	<path d="M510.6,700.7c-0.7,0-1.9-0.1-3.4-0.2c-1.5-0.1-2.6-0.2-3.4-0.1c0,1.1,0.2,3,0.4,5.7c0.2,2.4,0.3,4.4,0.3,5.8
		c0,0.3,0,0.8,0.1,1.4c0.1,0.6,0.1,1.1,0.1,1.4c0,0.7-0.2,1.3-0.5,1.9c-0.4,0.7-0.9,1.1-1.7,1.1c-0.5,0-1-0.2-1.4-0.5
		c-0.4-0.4-0.7-0.8-0.7-1.4c0-0.1,0-0.3,0.1-0.6c0-0.3,0.1-0.5,0.1-0.6c0-0.4,0-1.1-0.1-2s-0.1-1.5-0.1-2c0-1.3-0.1-3-0.3-5.1
		c-0.2-2.5-0.4-4.2-0.4-5.1H499c-2.1,0-3.8-0.2-5-0.5c-1-0.3-1.6-0.9-1.6-1.9c0-0.5,0.2-0.9,0.5-1.3c0.4-0.5,0.9-0.7,1.6-0.6
		c0.3,0,1.1,0.1,2.2,0.2c0.9,0.1,1.7,0.2,2.3,0.2s1.4,0,2.6,0s2,0,2.6,0c0.7,0,1.8,0,3.2,0.1c1.4,0.1,2.5,0.1,3.2,0.1
		c0.6,0,1,0.2,1.4,0.6s0.6,0.8,0.6,1.4s-0.2,1-0.6,1.4S511.1,700.7,510.6,700.7z"/>
	<path d="M525.6,700.9c-0.5,0-1.7-0.1-3.7-0.4c-0.1,1.7-0.2,4-0.2,6.9l0,6.4c1.3,0,2.5,0,3.8,0c0.6,0,1,0.2,1.4,0.6
		c0.4,0.4,0.6,0.8,0.6,1.4s-0.2,1-0.6,1.4c-0.4,0.4-0.9,0.6-1.4,0.6c-0.5,0-1.3,0-2.4,0s-1.9,0-2.4,0c-0.6,0-1.6,0.1-2.9,0.2
		c-1.3,0.2-2.2,0.2-2.9,0.2c-0.6,0-1.1-0.2-1.4-0.6c-0.4-0.4-0.6-0.8-0.6-1.4c0-0.5,0.2-1,0.6-1.4c0.4-0.4,0.9-0.6,1.5-0.6
		c0.7,0,1.6-0.1,2.7-0.2c0-1.1,0-3.2,0-6.4c0-2.6,0.1-5,0.3-7.3l-3.1,0.1c-0.6,0-1-0.2-1.4-0.6c-0.4-0.4-0.6-0.8-0.6-1.4
		c0-0.6,0.2-1,0.5-1.4c0.3-0.3,0.8-0.5,1.2-0.6c0.8-0.1,2.2-0.1,4.2-0.1c1.8,0,4.1,0.2,6.9,0.6c1.1,0.2,1.7,0.8,1.7,2
		c0,0.6-0.2,1.1-0.7,1.4C526.5,700.8,526.1,700.9,525.6,700.9z"/>
	<path d="M539.3,718.5c-2.8,0-5.2-0.8-7.1-2.4c-2.1-1.7-3.1-3.9-3.1-6.7c0-3.2,1-6.1,3-8.8c2.3-3,5.1-4.5,8.5-4.5
		c3.3,0,5.8,0.8,7.4,2.3c1.6,1.5,2.5,3.8,2.5,6.8c0,3.2-0.9,6.1-2.8,8.7C545.6,717,542.8,718.5,539.3,718.5z M540.6,700.1
		c-2.1,0-3.9,1-5.4,3.1c-1.4,1.9-2.1,4-2.1,6.3c0,1.6,0.6,2.8,1.8,3.8c1.2,0.9,2.6,1.4,4.4,1.4c2.1,0,3.8-1,5.2-3.1
		c1.3-1.9,1.9-4,1.9-6.3c0-2-0.4-3.4-1.3-4.1C544.3,700.4,542.8,700.1,540.6,700.1z"/>
	<path d="M90.9,743.5c0.9-2.3,1.6-4.1,2.1-5.5c-0.4,0-1,0-1.7,0c-0.9,0-1.4,0-1.7,0c-0.5,0-1-0.2-1.3-0.5c-0.4-0.3-0.5-0.7-0.5-1.2
		c0-1,0.6-1.6,1.7-1.7c1,0,2.6-0.1,4.6-0.1l0.9-2.6c0.5-1.2,1.1-1.8,1.7-1.8c1.2,0,1.9,0.6,1.9,1.7c0,0.5-0.2,1.4-0.7,2.7h5
		c0.2-1,0.6-2.1,1-3.4c0.3-0.9,0.9-1.4,1.7-1.4c0.5,0,0.9,0.2,1.3,0.5c0.4,0.3,0.6,0.7,0.6,1.2c0,0.3-0.3,1.3-0.8,3.1
		c0.6,0,1,0,1.3,0c1.7,0,2.5,0.6,2.5,1.8c0,0.9-0.4,1.4-1.2,1.7c-0.4,0.1-1.2,0.2-2.3,0.2c-0.1,0-0.3,0-0.6,0h-0.6
		c-0.4,1.2-1,3-1.8,5.5h2c1.9,0,2.9,0.6,2.9,1.9c0,0.5-0.2,0.9-0.5,1.2s-0.8,0.4-1.3,0.4c-0.2,0-0.9,0-2.1,0c-0.8,0-1.5,0-2.1,0
		c-0.3,0.8-0.6,2.2-1.1,4c-0.3,1.1-1,1.7-2.2,1.7c-1,0-1.6-0.5-1.6-1.5c0-0.5,0.4-1.9,1.1-4.2h-5.8c-0.8,1.9-1.4,3.5-1.8,4.6
		c-0.2,0.7-0.8,1.1-1.7,1.1c-0.5,0-0.9-0.2-1.3-0.5c-0.4-0.3-0.6-0.7-0.6-1.2c0-0.1,0.5-1.5,1.5-4h-1.6c-0.5,0-1-0.2-1.3-0.7
		c-0.3-0.4-0.5-0.8-0.5-1.3c0-1,0.5-1.5,1.6-1.6C87.8,743.5,88.9,743.5,90.9,743.5z M96.9,738l-2.1,5.5h5.4l1.8-5.5H96.9z"/>
	<path d="M114.9,752.6c-0.6,0-1-0.2-1.4-0.6c-0.4-0.4-0.6-0.8-0.6-1.4c0-0.9,0-2.4,0.1-4.2c0.1-1.9,0.1-3.3,0.1-4.2
		c0-1,0-2.6-0.1-4.7c0-2.1-0.1-3.7-0.1-4.7c0-0.5,0.2-1,0.7-1.5c0.5-0.5,1-0.8,1.6-0.8c0.3,0,1.1,0.3,2.3,0.9
		c1.5,0.7,2.3,1.1,2.6,1.2c2.8,0.9,5.1,2.3,7.1,4.2c2.3,2.2,3.5,4.7,3.5,7.4c0,1.6-0.4,3.2-1.2,4.7c-0.8,1.5-1.9,2.7-3.3,3.6
		c-1.6,1-3.8,1.5-6.6,1.5c-0.7,0-1.5-0.1-2.4-0.3C116.4,753.3,115.6,753,114.9,752.6z M122.9,738c-0.9-0.6-2.9-1.5-5.9-2.7v14
		c0.4,0.2,0.8,0.4,1.3,0.5s1,0.2,1.6,0.2c2,0,3.5-0.3,4.4-0.8c0.8-0.5,1.5-1.3,2-2.2c0.5-0.9,0.7-1.9,0.7-2.9
		C127,741.8,125.6,739.7,122.9,738z"/>
	<path d="M145.1,735.7c-0.5,0-1.7-0.1-3.7-0.4c-0.1,1.7-0.2,4-0.2,6.9l0,6.4c1.3,0,2.5,0,3.8,0c0.6,0,1,0.2,1.4,0.6s0.6,0.8,0.6,1.4
		s-0.2,1-0.6,1.4c-0.4,0.4-0.9,0.6-1.4,0.6c-0.5,0-1.3,0-2.4,0s-1.9,0-2.4,0c-0.6,0-1.6,0.1-2.9,0.2c-1.3,0.2-2.2,0.2-2.9,0.2
		c-0.6,0-1.1-0.2-1.4-0.6c-0.4-0.4-0.6-0.8-0.6-1.4c0-0.5,0.2-1,0.6-1.4c0.4-0.4,0.9-0.6,1.5-0.6c0.7,0,1.6-0.1,2.7-0.2
		c0-1.1,0-3.2,0-6.4c0-2.6,0.1-5,0.3-7.3l-3.1,0.1c-0.6,0-1-0.2-1.4-0.6c-0.4-0.4-0.6-0.8-0.6-1.4c0-0.6,0.2-1,0.5-1.4
		c0.3-0.3,0.8-0.5,1.2-0.6c0.8-0.1,2.2-0.1,4.2-0.1c1.8,0,4.1,0.2,6.9,0.6c1.1,0.2,1.7,0.8,1.7,2c0,0.6-0.2,1.1-0.7,1.4
		C145.9,735.6,145.5,735.7,145.1,735.7z"/>
	<path d="M166.6,744.1c-0.6,2.8-1.9,5.1-3.9,6.7c-2,1.7-4.3,2.5-6.9,2.5c-2.5,0-4.4-0.7-5.6-2c-1.3-1.3-1.9-3.3-1.9-6
		c0-2.4,0.6-4.9,1.8-7.4s2.7-4.6,4.6-6.2c1.3-1.1,2.7-1.7,4.2-1.7c0.9,0,2.2,0.3,3.7,1c1.9,0.8,2.8,1.6,2.8,2.5c0,0.5-0.2,1-0.6,1.4
		c-0.4,0.4-0.9,0.6-1.4,0.6c-0.3,0-0.9-0.3-1.9-0.8c-1-0.5-1.9-0.8-2.7-0.8c-0.8,0-2,0.9-3.4,2.7c-2.1,2.7-3.2,5.5-3.2,8.6
		c0,1.6,0.2,2.6,0.7,3.2c0.5,0.6,1.4,0.9,2.8,0.9c1.4,0,2.7-0.4,3.8-1.2c1.2-0.9,2-2.1,2.6-3.8c-2.2,0.2-4.1,0.6-5.7,1.3
		c-0.3,0.1-0.6,0.2-0.9,0.2c-0.6,0-1.1-0.2-1.5-0.7c-0.3-0.4-0.5-0.8-0.5-1.3c0-1.4,1.7-2.5,5.1-3c1.9-0.3,4.2-0.5,6.7-0.5
		c0.6,0,1,0.2,1.4,0.6c0.4,0.4,0.6,0.8,0.6,1.4C167.4,743.2,167.1,743.7,166.6,744.1z"/>
	<path d="M180.6,735.7c-0.5,0-1.7-0.1-3.7-0.4c-0.1,1.7-0.2,4-0.2,6.9l0,6.4c1.3,0,2.5,0,3.8,0c0.6,0,1,0.2,1.4,0.6s0.6,0.8,0.6,1.4
		s-0.2,1-0.6,1.4c-0.4,0.4-0.9,0.6-1.4,0.6c-0.5,0-1.3,0-2.4,0s-1.9,0-2.4,0c-0.6,0-1.6,0.1-2.9,0.2c-1.3,0.2-2.2,0.2-2.9,0.2
		c-0.6,0-1.1-0.2-1.4-0.6c-0.4-0.4-0.6-0.8-0.6-1.4c0-0.5,0.2-1,0.6-1.4c0.4-0.4,0.9-0.6,1.5-0.6c0.7,0,1.6-0.1,2.7-0.2
		c0-1.1,0-3.2,0-6.4c0-2.6,0.1-5,0.3-7.3l-3.1,0.1c-0.6,0-1-0.2-1.4-0.6c-0.4-0.4-0.6-0.8-0.6-1.4c0-0.6,0.2-1,0.5-1.4
		c0.3-0.3,0.8-0.5,1.2-0.6c0.8-0.1,2.2-0.1,4.2-0.1c1.8,0,4.1,0.2,6.9,0.6c1.1,0.2,1.7,0.8,1.7,2c0,0.6-0.2,1.1-0.7,1.4
		C181.4,735.6,181,735.7,180.6,735.7z"/>
	<path d="M201.5,735.5c-0.7,0-1.9-0.1-3.4-0.2c-1.5-0.1-2.6-0.2-3.4-0.1c0,1.1,0.2,3,0.4,5.7c0.2,2.4,0.3,4.4,0.3,5.8
		c0,0.3,0,0.8,0.1,1.4s0.1,1.1,0.1,1.4c0,0.7-0.2,1.3-0.5,1.9c-0.4,0.7-0.9,1.1-1.7,1.1c-0.5,0-1-0.2-1.4-0.5
		c-0.4-0.4-0.7-0.8-0.7-1.4c0-0.1,0-0.3,0.1-0.6s0.1-0.5,0.1-0.6c0-0.4,0-1.1-0.1-2c-0.1-0.9-0.1-1.5-0.1-2c0-1.3-0.1-3-0.3-5.1
		c-0.2-2.5-0.4-4.2-0.4-5.1h-0.7c-2.1,0-3.8-0.2-5-0.5c-1-0.3-1.6-0.9-1.6-1.9c0-0.5,0.2-0.9,0.5-1.3c0.4-0.5,0.9-0.7,1.6-0.6
		c0.3,0,1.1,0.1,2.2,0.2c0.9,0.1,1.7,0.2,2.3,0.2s1.4,0,2.6,0s2,0,2.6,0c0.7,0,1.8,0,3.2,0.1s2.5,0.1,3.2,0.1c0.6,0,1,0.2,1.4,0.6
		c0.4,0.4,0.6,0.8,0.6,1.4c0,0.5-0.2,1-0.6,1.4C202.6,735.3,202.1,735.5,201.5,735.5z"/>
	<path d="M221,752.8c-0.7,0-1.5-0.9-2.2-2.6c-0.5-1.1-0.9-2.4-1.3-3.8c-0.7,0.1-1.8,0.2-3.4,0.3c-1.5,0.1-2.6,0.2-3.4,0.4
		c-0.4,1-1.2,2.6-2.3,4.7c-0.4,0.7-1,1-1.7,1c-0.5,0-1-0.2-1.4-0.5s-0.6-0.8-0.6-1.4c0-0.5,0.7-2.1,2.1-4.9
		c-0.1-0.3-0.2-0.6-0.2-0.8c0-0.5,0.5-0.8,1.4-1.1c1.3-2.3,2.8-4.7,4.5-7.2c2.4-3.6,3.8-5.4,4.4-5.4c1,0,1.7,0.6,2.1,1.9
		c0.2,1,0.5,2.5,0.9,4.5c0.6,2.7,1.3,5.8,2.1,9.3c0.1,0.3,0.3,0.9,0.7,1.9c0.3,0.8,0.5,1.4,0.5,1.8c0,0.5-0.2,1-0.6,1.4
		C222,752.7,221.5,752.9,221,752.8z M215.7,738.3c-0.7,1.3-1.7,3-3,5.2c0.4-0.1,1.1-0.2,2-0.2c1.1-0.1,1.7-0.1,2-0.2
		C216.4,741.9,216.1,740.3,215.7,738.3z"/>
	<path d="M239.3,751.9c-1.1,0.5-2.8,0.9-5.2,1.3c-2.1,0.4-3.9,0.5-5.2,0.5c-2.3,0-3.5-1-3.5-3c0,0.2,0.1-1.3,0.3-4.5
		c0.2-4.1,0.4-8.6,0.4-13.7c0-0.5,0.2-1,0.6-1.4s0.8-0.6,1.4-0.6c0.6,0,1,0.2,1.4,0.6c0.4,0.4,0.6,0.8,0.6,1.4c0,5-0.1,9.7-0.4,13.9
		c-0.1,0.8-0.2,1.9-0.3,3.5c2.2,0,5.1-0.6,8.6-1.6c0.2-0.1,0.4-0.1,0.6-0.1c0.6,0,1.1,0.2,1.4,0.7c0.3,0.4,0.5,0.8,0.5,1.3
		C240.5,750.9,240.1,751.5,239.3,751.9z"/>
	<path d="M253.7,735.7c-0.5,0-1.7-0.1-3.7-0.4c-0.1,1.7-0.2,4-0.2,6.9l0,6.4c1.3,0,2.5,0,3.8,0c0.6,0,1,0.2,1.4,0.6s0.6,0.8,0.6,1.4
		s-0.2,1-0.6,1.4c-0.4,0.4-0.9,0.6-1.4,0.6c-0.5,0-1.3,0-2.4,0s-1.9,0-2.4,0c-0.6,0-1.6,0.1-2.9,0.2c-1.3,0.2-2.2,0.2-2.9,0.2
		c-0.6,0-1.1-0.2-1.4-0.6c-0.4-0.4-0.6-0.8-0.6-1.4c0-0.5,0.2-1,0.6-1.4c0.4-0.4,0.9-0.6,1.5-0.6c0.7,0,1.6-0.1,2.7-0.2
		c0-1.1,0-3.2,0-6.4c0-2.6,0.1-5,0.3-7.3l-3.1,0.1c-0.6,0-1-0.2-1.4-0.6c-0.4-0.4-0.6-0.8-0.6-1.4c0-0.6,0.2-1,0.5-1.4
		c0.3-0.3,0.8-0.5,1.2-0.6c0.8-0.1,2.2-0.1,4.2-0.1c1.8,0,4.1,0.2,6.9,0.6c1.1,0.2,1.7,0.8,1.7,2c0,0.6-0.2,1.1-0.7,1.4
		C254.6,735.6,254.2,735.7,253.7,735.7z"/>
	<path d="M264.4,753.3c-2.4,0-4.3-0.5-5.7-1.6c-1.2-0.9-1.7-1.9-1.7-3.1c0-0.6,0.2-1.1,0.5-1.5s0.9-0.6,1.5-0.6
		c0.8,0,1.5,0.4,1.9,1.3c0.5,1.2,1.8,1.7,3.6,1.7c1.6,0,3.2-0.4,4.7-1.1c1.6-0.7,2.4-1.5,2.4-2.4c0-1.2-0.5-2-1.5-2.3
		c-0.7-0.3-2.1-0.4-4.2-0.5c-1.6,0-3.1-0.3-4.4-0.9c-1.7-0.8-2.6-1.9-2.6-3.4c0-1.8,1-3.5,2.9-5.1c1.9-1.5,4.1-2.3,6.4-2.3
		c0.9,0,2.1,0.2,3.4,0.6c1.7,0.5,2.5,1.1,2.5,1.8c0,0.5-0.2,0.9-0.5,1.3c-0.4,0.4-0.9,0.6-1.5,0.6c-0.4,0-1.1-0.1-2-0.3
		c-0.9-0.2-1.5-0.3-2-0.3c-1.2,0-2.4,0.3-3.5,0.9c-1.1,0.6-1.7,1.2-1.7,1.9c0,0.4,0.2,0.7,0.5,0.9c0.3,0.2,0.9,0.4,1.5,0.5
		c1.2,0.1,2.4,0.1,3.6,0.2c2.1,0.2,3.7,0.7,5,1.8c1.3,1.1,2,2.7,2,4.7c0,2.4-1.4,4.3-4.2,5.5C269.5,752.8,267.1,753.3,264.4,753.3z"
		/>
	<path d="M294.1,752.8c-0.7,0-1.5-0.9-2.2-2.6c-0.5-1.1-0.9-2.4-1.3-3.8c-0.7,0.1-1.8,0.2-3.4,0.3c-1.5,0.1-2.6,0.2-3.4,0.4
		c-0.4,1-1.2,2.6-2.3,4.7c-0.4,0.7-1,1-1.7,1c-0.5,0-1-0.2-1.4-0.5s-0.6-0.8-0.6-1.4c0-0.5,0.7-2.1,2.1-4.9
		c-0.1-0.3-0.2-0.6-0.2-0.8c0-0.5,0.5-0.8,1.4-1.1c1.3-2.3,2.8-4.7,4.5-7.2c2.4-3.6,3.8-5.4,4.4-5.4c1,0,1.7,0.6,2.1,1.9
		c0.2,1,0.5,2.5,0.9,4.5c0.6,2.7,1.3,5.8,2.1,9.3c0.1,0.3,0.3,0.9,0.7,1.9c0.3,0.8,0.5,1.4,0.5,1.8c0,0.5-0.2,1-0.6,1.4
		C295,752.7,294.6,752.9,294.1,752.8z M288.8,738.3c-0.7,1.3-1.7,3-3,5.2c0.4-0.1,1.1-0.2,2-0.2c1.1-0.1,1.7-0.1,2-0.2
		C289.5,741.9,289.2,740.3,288.8,738.3z"/>
	<path d="M315.2,752.8c-0.7,0-1.5-0.9-2.2-2.6c-0.5-1.1-0.9-2.4-1.3-3.8c-0.7,0.1-1.8,0.2-3.4,0.3c-1.5,0.1-2.6,0.2-3.4,0.4
		c-0.4,1-1.2,2.6-2.3,4.7c-0.4,0.7-1,1-1.7,1c-0.5,0-1-0.2-1.4-0.5s-0.6-0.8-0.6-1.4c0-0.5,0.7-2.1,2.1-4.9
		c-0.1-0.3-0.2-0.6-0.2-0.8c0-0.5,0.5-0.8,1.4-1.1c1.3-2.3,2.8-4.7,4.5-7.2c2.4-3.6,3.8-5.4,4.4-5.4c1,0,1.7,0.6,2.1,1.9
		c0.2,1,0.5,2.5,0.9,4.5c0.6,2.7,1.3,5.8,2.1,9.3c0.1,0.3,0.3,0.9,0.7,1.9c0.3,0.8,0.5,1.4,0.5,1.8c0,0.5-0.2,1-0.6,1.4
		C316.2,752.7,315.8,752.9,315.2,752.8z M310,738.3c-0.7,1.3-1.7,3-3,5.2c0.4-0.1,1.1-0.2,2-0.2c1.1-0.1,1.7-0.1,2-0.2
		C310.7,741.9,310.4,740.3,310,738.3z"/>
	<path d="M337.1,735.5c-0.7,0-1.9-0.1-3.4-0.2c-1.5-0.1-2.6-0.2-3.4-0.1c0,1.1,0.2,3,0.4,5.7c0.2,2.4,0.3,4.4,0.3,5.8
		c0,0.3,0,0.8,0.1,1.4c0.1,0.6,0.1,1.1,0.1,1.4c0,0.7-0.2,1.3-0.5,1.9c-0.4,0.7-0.9,1.1-1.7,1.1c-0.5,0-1-0.2-1.4-0.5
		c-0.4-0.4-0.7-0.8-0.7-1.4c0-0.1,0-0.3,0.1-0.6c0-0.3,0.1-0.5,0.1-0.6c0-0.4,0-1.1-0.1-2s-0.1-1.5-0.1-2c0-1.3-0.1-3-0.3-5.1
		c-0.2-2.5-0.4-4.2-0.4-5.1h-0.7c-2.1,0-3.8-0.2-5-0.5c-1-0.3-1.6-0.9-1.6-1.9c0-0.5,0.2-0.9,0.5-1.3c0.4-0.5,0.9-0.7,1.6-0.6
		c0.3,0,1.1,0.1,2.2,0.2c0.9,0.1,1.7,0.2,2.3,0.2s1.4,0,2.6,0s2,0,2.6,0c0.7,0,1.8,0,3.2,0.1c1.4,0.1,2.5,0.1,3.2,0.1
		c0.6,0,1,0.2,1.4,0.6c0.4,0.4,0.6,0.8,0.6,1.4c0,0.5-0.2,1-0.6,1.4C338.1,735.3,337.7,735.5,337.1,735.5z"/>
	<path d="M352.1,735.7c-0.5,0-1.7-0.1-3.7-0.4c-0.1,1.7-0.2,4-0.2,6.9l0,6.4c1.3,0,2.5,0,3.8,0c0.6,0,1,0.2,1.4,0.6
		c0.4,0.4,0.6,0.8,0.6,1.4s-0.2,1-0.6,1.4c-0.4,0.4-0.9,0.6-1.4,0.6c-0.5,0-1.3,0-2.4,0s-1.9,0-2.4,0c-0.6,0-1.6,0.1-2.9,0.2
		c-1.3,0.2-2.2,0.2-2.9,0.2c-0.6,0-1.1-0.2-1.4-0.6c-0.4-0.4-0.6-0.8-0.6-1.4c0-0.5,0.2-1,0.6-1.4c0.4-0.4,0.9-0.6,1.5-0.6
		c0.7,0,1.6-0.1,2.7-0.2c0-1.1,0-3.2,0-6.4c0-2.6,0.1-5,0.3-7.3l-3.1,0.1c-0.6,0-1-0.2-1.4-0.6c-0.4-0.4-0.6-0.8-0.6-1.4
		c0-0.6,0.2-1,0.5-1.4c0.3-0.3,0.8-0.5,1.2-0.6c0.8-0.1,2.2-0.1,4.2-0.1c1.8,0,4.1,0.2,6.9,0.6c1.1,0.2,1.7,0.8,1.7,2
		c0,0.6-0.2,1.1-0.7,1.4C353,735.6,352.6,735.7,352.1,735.7z"/>
	<path d="M365.9,753.3c-2.8,0-5.2-0.8-7.1-2.4c-2.1-1.7-3.1-3.9-3.1-6.7c0-3.2,1-6.1,3-8.8c2.3-3,5.1-4.5,8.5-4.5
		c3.3,0,5.8,0.8,7.4,2.3c1.6,1.5,2.5,3.8,2.5,6.8c0,3.2-0.9,6.1-2.8,8.7C372.1,751.8,369.3,753.3,365.9,753.3z M367.1,734.8
		c-2.1,0-3.9,1-5.4,3.1c-1.4,1.9-2.1,4-2.1,6.3c0,1.6,0.6,2.8,1.8,3.8c1.2,0.9,2.6,1.4,4.4,1.4c2.1,0,3.8-1,5.2-3.1
		c1.3-1.9,1.9-4,1.9-6.3c0-2-0.4-3.4-1.3-4.1C370.8,735.2,369.3,734.8,367.1,734.8z"/>
	<path d="M394.8,743.5c0.9-2.3,1.6-4.1,2.1-5.5c-0.4,0-1,0-1.7,0c-0.9,0-1.4,0-1.7,0c-0.5,0-1-0.2-1.3-0.5c-0.4-0.3-0.5-0.7-0.5-1.2
		c0-1,0.6-1.6,1.7-1.7c1,0,2.6-0.1,4.6-0.1l0.9-2.6c0.5-1.2,1.1-1.8,1.7-1.8c1.2,0,1.9,0.6,1.9,1.7c0,0.5-0.2,1.4-0.7,2.7h5
		c0.2-1,0.6-2.1,1-3.4c0.3-0.9,0.9-1.4,1.7-1.4c0.5,0,0.9,0.2,1.3,0.5c0.4,0.3,0.6,0.7,0.6,1.2c0,0.3-0.3,1.3-0.8,3.1
		c0.6,0,1,0,1.3,0c1.7,0,2.5,0.6,2.5,1.8c0,0.9-0.4,1.4-1.2,1.7c-0.4,0.1-1.2,0.2-2.3,0.2c-0.1,0-0.3,0-0.6,0h-0.6
		c-0.4,1.2-1,3-1.8,5.5h2c1.9,0,2.9,0.6,2.9,1.9c0,0.5-0.2,0.9-0.5,1.2s-0.8,0.4-1.3,0.4c-0.2,0-0.9,0-2.1,0c-0.8,0-1.5,0-2.1,0
		c-0.3,0.8-0.6,2.2-1.1,4c-0.3,1.1-1,1.7-2.2,1.7c-1,0-1.6-0.5-1.6-1.5c0-0.5,0.4-1.9,1.1-4.2h-5.8c-0.8,1.9-1.4,3.5-1.8,4.6
		c-0.2,0.7-0.8,1.1-1.7,1.1c-0.5,0-0.9-0.2-1.3-0.5s-0.6-0.7-0.6-1.2c0-0.1,0.5-1.5,1.5-4h-1.6c-0.5,0-1-0.2-1.3-0.7
		c-0.3-0.4-0.5-0.8-0.5-1.3c0-1,0.5-1.5,1.6-1.6C391.7,743.5,392.8,743.5,394.8,743.5z M400.8,738l-2.1,5.5h5.4l1.8-5.5H400.8z"/>
	<path d="M431.2,750c-0.7,0.9-1.5,1.7-2.5,2.3c-1.2,0.8-2.4,1.1-3.7,1.1c-2.4,0-4.2-0.5-5.4-1.4c-2.5-1.9-3.7-5.2-3.7-10
		c0-0.5,0-1.1,0.1-2c0-0.9,0.1-1.6,0.1-2c0-0.4,0-0.9,0-1.6c0-0.7,0-1.3,0-1.6c0-0.7,0.1-1.4,0.4-2.1c0.4-0.9,0.9-1.3,1.5-1.3
		c0.5,0,1,0.2,1.4,0.5c0.4,0.4,0.7,0.8,0.7,1.4c0,0.5,0,1.3,0,2.4c0,1.1,0,1.9,0,2.4c0,0.4,0,1.1-0.1,2c0,0.9-0.1,1.6-0.1,2
		c0,1.4,0.2,2.8,0.5,4c0.4,1.5,1,2.5,1.7,3.1c0.4,0.3,1.3,0.5,2.8,0.5c2.5,0,4.2-2.1,5-6.4c0.5-2.2,0.7-5.3,0.7-9.3
		c0-0.5,0.2-1,0.5-1.5c0.4-0.7,1-1,1.8-1c0.6,0,1.1,0.2,1.4,0.7c0.2,0.3,0.4,0.7,0.4,1.2c0,3.7-0.2,6.6-0.5,8.7
		C433.7,745.2,432.7,747.9,431.2,750z"/>
	<path d="M449.4,735.7c-0.5,0-1.7-0.1-3.7-0.4c-0.1,1.7-0.2,4-0.2,6.9l0,6.4c1.3,0,2.5,0,3.8,0c0.6,0,1,0.2,1.4,0.6
		c0.4,0.4,0.6,0.8,0.6,1.4s-0.2,1-0.6,1.4c-0.4,0.4-0.9,0.6-1.4,0.6c-0.5,0-1.3,0-2.4,0s-1.9,0-2.4,0c-0.6,0-1.6,0.1-2.9,0.2
		c-1.3,0.2-2.2,0.2-2.9,0.2c-0.6,0-1.1-0.2-1.4-0.6c-0.4-0.4-0.6-0.8-0.6-1.4c0-0.5,0.2-1,0.6-1.4c0.4-0.4,0.9-0.6,1.5-0.6
		c0.7,0,1.6-0.1,2.7-0.2c0-1.1,0-3.2,0-6.4c0-2.6,0.1-5,0.3-7.3l-3.1,0.1c-0.6,0-1-0.2-1.4-0.6c-0.4-0.4-0.6-0.8-0.6-1.4
		c0-0.6,0.2-1,0.5-1.4c0.3-0.3,0.8-0.5,1.2-0.6c0.8-0.1,2.2-0.1,4.2-0.1c1.8,0,4.1,0.2,6.9,0.6c1.1,0.2,1.7,0.8,1.7,2
		c0,0.6-0.2,1.1-0.7,1.4C450.3,735.6,449.8,735.7,449.4,735.7z"/>
	<path d="M466.1,732.1c-0.4,0.8-0.9,2-1.6,3.7c-0.6,1.7-1.5,3.6-2.7,5.8c-1,1.9-2.1,3.7-3.1,5.6c-0.2,0.4-1.1,2.2-2.6,5.4
		c-0.3,0.7-0.9,1.1-1.7,1.1c-0.5,0-0.9-0.2-1.3-0.5c-0.4-0.3-0.6-0.8-0.6-1.2c0-0.2,0-0.4,0.1-0.7c0.7-1.9,2.1-4.7,4.2-8.4
		c2-3.6,3.4-6.4,4.2-8.4c0.6-1.5,1-2.5,1.3-3c0.7-1.4,1.4-2.2,2.1-2.1c0.5,0,0.9,0.2,1.3,0.5c0.4,0.3,0.6,0.7,0.6,1.2
		C466.3,731.4,466.2,731.8,466.1,732.1z"/>
	<path d="M483.1,750c-0.7,0.9-1.5,1.7-2.5,2.3c-1.2,0.8-2.4,1.1-3.7,1.1c-2.4,0-4.2-0.5-5.4-1.4c-2.5-1.9-3.7-5.2-3.7-10
		c0-0.5,0-1.1,0.1-2c0-0.9,0.1-1.6,0.1-2c0-0.4,0-0.9,0-1.6s0-1.3,0-1.6c0-0.7,0.1-1.4,0.4-2.1c0.4-0.9,0.9-1.3,1.5-1.3
		c0.5,0,1,0.2,1.4,0.5c0.4,0.4,0.7,0.8,0.7,1.4c0,0.5,0,1.3,0,2.4c0,1.1,0,1.9,0,2.4c0,0.4,0,1.1-0.1,2c0,0.9-0.1,1.6-0.1,2
		c0,1.4,0.2,2.8,0.5,4c0.4,1.5,1,2.5,1.7,3.1c0.4,0.3,1.3,0.5,2.8,0.5c2.5,0,4.2-2.1,5-6.4c0.5-2.2,0.7-5.3,0.7-9.3
		c0-0.5,0.2-1,0.5-1.5c0.4-0.7,1-1,1.8-1c0.6,0,1.1,0.2,1.4,0.7c0.2,0.3,0.4,0.7,0.4,1.2c0,3.7-0.2,6.6-0.5,8.7
		C485.7,745.2,484.7,747.9,483.1,750z"/>
	<path d="M507.9,734.1c-1.2,1.4-2.2,2.6-2.9,3.6c-0.7,1-1.9,2.6-3.5,4.6c1,1.4,2,2.8,3,4.1c1.2,1.6,2.2,2.9,3.2,4
		c0.3,0.4,0.5,0.8,0.5,1.3c0,0.5-0.2,1-0.6,1.4c-0.4,0.4-0.9,0.6-1.4,0.6c-0.9,0-2.2-1.1-3.7-3.2c-0.4-0.6-1-1.5-1.9-2.8
		c-0.4-0.5-1-1.4-1.8-2.4c-1.2,1.3-2.6,2.9-4.4,4.8c-0.6,0.6-1.4,1.6-2.6,2.8c-0.4,0.4-0.9,0.6-1.4,0.6c-0.5,0-1-0.2-1.4-0.6
		s-0.6-0.8-0.6-1.4c0-0.5,0.2-0.9,0.5-1.2c0.6-0.6,1.4-1.5,2.6-2.7c1.2-1.3,2.9-3.2,5-5.5c-1-1.2-2-2.4-3-3.6
		c-0.1-0.1-0.6-0.8-1.6-2.1c-0.7-0.8-1.2-1.5-1.8-1.9s-0.8-0.9-0.8-1.5c0-0.5,0.2-1,0.6-1.4s0.9-0.6,1.4-0.6c0.5,0,1.2,0.4,2,1.1
		c0.6,0.5,1.1,1.1,1.5,1.6c0.4,0.5,1,1.3,1.8,2.3c0.9,1,1.8,2.1,2.6,3.1c1.2-1.6,2.4-3.1,3.5-4.7c1.8-2.3,3.1-3.4,3.7-3.4
		c0.5,0,1,0.2,1.4,0.6c0.4,0.4,0.6,0.8,0.6,1.4C508.4,733.3,508.2,733.7,507.9,734.1z"/>
</g>
<g>
</g>
<g>
</g>
<g>
</g>
<g>
</g>
<g>
</g>
<g>
</g>
</svg>
